<?xml version="1.0" encoding="utf-8"?>
<!-- Generator: Adobe Illustrator 26.3.0, SVG Export Plug-In . SVG Version: 6.00 Build 0)  -->
<svg version="1.1" id="Layer_1" xmlns="http://www.w3.org/2000/svg" xmlns:xlink="http://www.w3.org/1999/xlink" x="0px" y="0px"
	 viewBox="0 0 1597 991.7" style="enable-background:new 0 0 1597 991.7;" xml:space="preserve">
<style type="text/css">
	.st0{fill:#FDFEFE;}
	.st1{fill:#62ACC2;}
	.st2{fill:#60ABC2;}
	.st3{fill:#60ABC1;}
	.st4{fill:#7FBBCD;}
	.st5{fill:#A0CCDA;}
	.st6{fill:#63ACC3;}
	.st7{fill:#61ABC2;}
	.st8{fill:#80BCCE;}
	.st9{fill:#CAE4EC;}
	.st10{fill:#A6D1DE;}
	.st11{fill:#ABD4E0;}
	.st12{fill:#B3D7E3;}
	.st13{fill:#C0DEE7;}
	.st14{fill:#9FCCDA;}
	.st15{fill:#3595B2;}
</style>
<g>
	<g>
		<g id="Maryland">
			<path id="MD" class="st15" d="M1415.8,439.3l2.9-6.4l0.8-8.1l-10.6,1.9l-9.8,0.5l-6.4-28.3l-3.9-9.3l-2.5-7.7l-37.4,7.2
				l-63.3,12.8l3.4,17.5l8.1-8.3l4.2-1.2l2.4-2.5l3-4.5l2.7,1.2l4.4-0.3l4.4-3.5l3.4-2.5l3.5-1l2.5,1.9l4.5,2.4l3.2,3l2.2,2.4
				l8.1,2.7l-1,4.9l9.8,3.5l3.5-4.4l6.2,4.2l-3.5,5.6l-1.2,5.6l-3,4.4v3.5l0.5,1.3l3.4,2.2l5.7,1.9l7.2-0.2l5.2,1.7l3.5,0.5l1.7-3.5
				l-2.5-3.5v-3l-4-3.5l-3.5-9.3l2.2-8.9l-0.3-3.5l-2.2-2.2c0,0,2.5-2.7,2.5-3.9c0.2-1.2,0.4-2.4,0.8-3.5l3.2-2.2l3.2-2.7l0.8,1.7
				l-2.5,2.7l-2.2,6.2l0.5,1.9l3,0.5l0.8,9.3l-3.5,1.7l0.5,6.1l0.8-0.3l1.9-3.2l2.7,3l-2.7,2.2l-0.5,5.7l4.4,5.7l6.6,0.8l2.7-1.3
				l5.4,7.1l1.7,0.7L1415.8,439.3z M1391.4,439.7l1.9,4.2l0.3,3l1.9,3.2c0,0,1.5-1.5,1.5-2s-1.2-5.2-1.2-5.2l-1.2-3.9L1391.4,439.7z
				"/>
		</g>
		<g id="West_Virginia">
			<path id="WV" class="st15" d="M1288,422.8l9.8-10.1l4.4-1.3l2.7-2.5l2.5-3.7l1.9,0.5l5.2-0.3l7.7-6.1l2.5-0.8l2.2,1.7l4.4,2
				l5.1,5.1l-0.7,7.2l-9.1-4.4l-8.1-3l-0.2,9.9l-4.4,9.6l-4.9,4l-1.3,3.9l-5.1,0.8l-2.9,13.6l-4.7,0.3l-1.9-1.7l-2-3.4l-3.7,0.8
				l-0.8,8.6l-3,8.6l-8.4,18.5l1.5,2.4l-0.2,3.4l-3.7,4.2l-2.7-0.7l-5.2,3.9l-4.7-1.3l-3,8.3l-6.4,1.7l-4.2-2.2l-4.2,3.2l-3.9,1.2
				l-5.4-1.3l-6.4-7.6l-5.9-3.7l-4.2-4.2l-4.9-6.2l-0.8-3.9l-4.7-2.9l-1-2.2l-0.3-9.4l0.5,0.2l4-0.3l3-1.7v-3.7l2.9-2.5l0.2-8.8
				l1.5-6.1l1.9-1.2l0.7,0.5l1.7,1.9l2.9,0.8l1.9-2.2l-1.7-5.2v-2.7l5.2-7.7l2-2.2l3.4,0.8l4.4-3l5.2-5.7l4-6.9l0.3-9.4l0.8-8.1
				v-8.3l-1.9-5.1l1.5-2.2l1.3-1.2l7.2,32.5l7.2-1.3l18.9-2.2L1288,422.8z"/>
		</g>
		<g id="Ohio">
			<path id="OH" class="st15" d="M1127.9,350.3l2.9,26.1l8.1,69.2l6.6-0.3l3.9-1.3l6.1,3l2.9,7.1l9.1,0.2l3,3.4h2.9l4-2.4l5.2,0.8
				l2.5,2.2l3-3.4l3.9-2.4l4-0.7l1,4.5l2.7,1.7l4.4,3.4l1.3,0.3l3.4-0.2l2-1V457l2.9-2.5l0.2-8.1l1.9-7.1l3.2-2.2l1.7,1.2l1.7,1.9
				l1.2,0.3l0.7-0.7l-1.5-4.5v-3.7l1.9-2.4l4.2-6.1l2.2-2.5l3.7,0.8l3.5-2.5l5.1-5.6l3.7-6.2l0.3-9.1l0.8-8.4v-7.7l-2-5.4l2-3l2.2-2
				l-1-4.7l-7.2-43.1l-10.4,6.2l-6.6,3.9l-5.7,6.2l-6.7,6.6l-5.4,1.3l-4.9,0.8l-9.3,4.4l-3.5,0.3l-5.7-5.2l-8.8,1l-4.4-2.5l-3.7-2.2
				L1127.9,350.3z"/>
		</g>
		<g id="Indiana">
			<path id="IN" class="st14" d="M1059,358.5l2.5,1.7l1.9-0.5l3.5-3.2l4.2-3l24.1-1.9l31-3l2.7,26.1l8.3,71.7l-1,4.9l2.2,2.7
				l0.3,2.2l-3.9,2.7l-6.1,2.9l-5.4,0.7l-0.8,8.1l-7.9,6.1l-4.9,6.7l0.3,4l-0.8,2.4h-5.9l-2.4-2.9l-8.8,5.1l0.3,5.2l-1.5,0.3
				l-0.8-1.5l-4-2.9l-6.1,2.5l-2.4,4.9l-2-1l-2.7-3l-7.4,0.8l-9.6,1.7l-4.2,2.2v-4.4l0.7-7.9l3.9-4.9l3-6.6l4.5-7.1l-0.8-9.8l-3-5.2
				l-0.5-5.4l1.3-8.9l-1.2-12l-1.5-21.2l-4.2-50.7L1059,358.5z"/>
		</g>
		<g id="Oregon">
			<path id="OR" class="st15" d="M123.6,262.2l47.6,12.1l46.3,10.9l28.6,6.2l14.8-59.1l2-7.4l4-9.3l-1.2-2.2l-4.2,0.2l-2.2-3l1-2.5
				l0.7-5.6l7.9-9.6l3.2-1.5l1.5-1.3l1.2-4.5l1.3-1.9l6.6-9.6l6.2-6.7l0.3-5.5l-5.7-4.2l-2-7.7l-22.1-6.4l-25.8-5.8l-24.9,0.6
				l-1.9-2.2l-8.6,3.1l-7.6-0.8l-4-2.7l-2.2,0.9l-7.9-0.5l-3.4-2.4l-8.2-3l-1.9-0.1l-7.5-2.1l-3,2.6l-10.5-0.4l-8.8-6.4l0.4-15.6
				l-3.4-5.9l-6.9-1l-1.2-4.2l-4-0.8l-9.8,3.5l-3.9,10.9L99.3,128l-5.4,10.9l-8.4,23.7l-10.9,22.9l-13.6,21.2l-3.2,4.9l-1.3,14.5
				l-2.2,10.1l4.6,5.9L123.6,262.2z"/>
		</g>
		<g id="Washington">
			<path id="WA" class="st15" d="M135.5,108.6l-3.9-7.2l-6.9-1.2l-0.7-4l-4.2-1l-4.9-0.8l-3,1.7l-3.9-4.9l0.5-4.9l4.5-0.5l2.7-6.7
				l-4.4-1.9l0.3-6.2l7.4-1l-4.5-4.5l-2.5-12l1-4.9V35.2l-3-5.4L114,14l3.5,0.8l4,4.9l4.5,4.4l5.4,3.2l7.6,3.5l5.2,1l4.9,2.5
				l5.7,1.7l3.9-0.3v-4l2.2-1.9l3.5-2.2l0.5,1.9l0.5,3l-3.9,0.8l-0.5,3.5l3,2.5l1.9,4l1,3.2l2.5-0.3l0.3-2.2l-1.7-2.2l-0.8-5.4
				l1.3-3l-1-2.5v-4.4l3-6.1l-1.9-4.4l-4-8.1l0.5-1.3l2.4-1.3l7.4,2.5l16.3,4.5l14.5,3.2l33.7,9.6l38.7,9.6l25.3,5.9l-8.1,29.7
				l-7.6,35l-5.7,27.3l-0.7,15.5l-21.7-6.3l-25.8-5.8l-24.4,0.5l-1.9-2.6l-9.6,3.5l-6.6-0.7l-4.4-3l-2.9,1.1l-7-0.4l-2.9-2.2
				l-8.7-2.9l-2-0.3l-8.1-2.3l-3.2,2.8l-9.5-0.4l-7.8-5.6L135.5,108.6z M151.7,15.3L155,15l0.8,2.4l2.5-2.7h3.9l1.3,2.5l-2.5,2.9
				l1,1.3l-1.2,3.4l-2.4,0.7c0,0-1.5,0.2-1.5-0.3c0.7-1.5,1.6-3,2.5-4.4l-2.9-1l-0.5,2.5l-1.2,1l-2.5-3.9L151.7,15.3z"/>
		</g>
		<g id="Nevada">
			<path id="NV" class="st15" d="M217.4,286.9l65.2,14.3l43.8,8.8l-17.8,89.4l-9.1,50.2l-5.6,26.1l-3.5,18.7l-4.4,27.6l-2.9,5.2
				l-2.7-0.2l-2-4.4l-4.7-0.8l-2.2-1.9l-3,0.2l-1.5,1.3l-3,2.2l-0.5,12.3l-0.5,2.5l-0.8,20.9l-1.9,3L232,519.5l-70.9-104.6l-20.9-32
				l14.4-54.9l13.5-52.7L217.4,286.9z"/>
		</g>
		<g id="Idaho">
			<path id="ID" class="st14" d="M305.3,41.1l-8.1,29.3l-7.6,35.2l-5.7,27.3l-0.7,16.3l2,7.5l5.9,4.5l-0.3,6.6l-6.6,7.4l-7.6,11.1
				l-1.5,4.9l-2,1.9l-3,1.3l-7.2,8.9l-0.7,5.2l-0.7,1.9l1,1.7l4.4-0.2l1.9,3.9l-4,9.8l-2,7.1L247.8,292l34.9,7.6l66.5,13.3
				l58.6,10.3l8.3-49.2l6.4-40.6l-4.5-4l-0.7-4.4l-1.3-1.9l-3.5,1.7l-1.2,4.4l-5.4,0.8l-6.6-2.7l-6.4,0.2l-4.2,1.2l-5.7-2.5l-4,0.3
				l-4,3.4l-3.4-1.9l-1.2-6.7l1.2-4.9l-4.2-4.9l-5.6-4.4l-4.5-22.1l-0.2-7.9l-0.5-0.2l-0.3,0.7l-8.6,5.9l-2.9-0.3l-4.9-5.7l-0.3-5.2
				l11.8-28.8l-0.7-3.3l-5.7-1.9l-1-2l-4.4-5.8l-7.7-17.2l-5.4-2.6l-3.4-8.3l2.2-7.8l-5.4-12.8l7.4-36.2L305.3,41.1z"/>
		</g>
		<g id="Montana">
			<path id="MT" class="st14" d="M618.1,113.8l-8.9,96.2l-2.2,25.6l-99.5-11.1l-82.5-12l-2.4,18.9l-3.2-2.9l-0.7-4.2l-2.2-3.2
				l-5.6,2.5l-1.2,4.2l-3.9,0.5l-6.4-2.7l-6.9,0.2l-4,1.2l-5.4-2.5l-5.1,0.3l-3.5,3.2l-1.5-1l-1.2-5.7l1.2-5.4l-4.5-5.4l-5.6-4.2
				l-4.2-21.2l-0.2-8.9l-2.7-1.3l-1,1.7l-7.6,5.4l-2-0.2l-3.9-4.7l-0.3-4.7l11.8-28.9l-1-4.5L346,137l-0.7-1.5l-4.5-5.9L333,112
				l-5.4-2.7l-3-7.2l2.2-7.8l-5.4-12.7l7.4-35.9l55.1,11.6l31,5.7l54.4,8.9l49.3,6.7l49.2,5.9l51.9,5.2L618.1,113.8z"/>
		</g>
		<g id="Wyoming">
			<path id="WY" class="st14" d="M604.5,267.2L602,310l-7.4,74.1l-4.5-0.5l-140.3-15.3l-47-5.1l3.4-20.2l11.6-69l6.4-40.8l2.2-18.9
				l81.2,11.8l99.5,10.9L604.5,267.2z"/>
		</g>
		<g id="Colorado">
			<path id="CO" class="st15" d="M650.3,391.2l-60.6-5.9l-133.2-14.5l-3.7,37.2L441,492.9l-3.2,23.1l57.3,6.6l63.1,7.4l58.4,5.1
				l24.1,1L650.3,391.2z"/>
		</g>
		<g id="Alaska">
			<path id="AK" class="st15" d="M281.3,758.6l-0.5,143.8l2.7,1.7l5.2,0.3l2.5-1.9h4.4l0.3,4.9l11.8,11.5l0.8,4.4l5.7-3.2l1-0.3
				l0.5-5.2l2.5-2.7l1.9-0.3l3.2-2.5l5.2,3.5l1,4.9l3.2,1.9l1.9,4l6.6,3l5.7,10.1l4.5,6.6l3.9,4.5l2.5,6.2l8.4,3l8.8,3.5l1.7,7.4
				l0.8,5.2l-1.7,5.7l-3,3.9l-2.7-1.3l-2.5-5.2l-4.5-2.5l-3-1.9l-1.3,1.3l2.5,4.5l0.3,6.2l-1.9,0.8l-3.2-3.2l-3.5-2.2l0.8,2.7l2.2,3
				l-1.3,1.3c-0.9-0.4-1.6-0.9-2.2-1.7c-0.8-1-3.5-5.7-3.5-5.7l-1.7-3.9c0,0-0.5,2.2-1.7,1.7c-0.9-0.7-1.6-1.5-2.2-2.5l3-3.2
				l-2.5-2.5V960h-1.3l-1.3,5.7l-1.9,0.8l-1.7-6.2l-1-6.2l-1.3-0.8l0.5,9.6v1.9l-2.5-2.2l-6.1-10.1l-3.5-0.8l-1-6.2l-2.7-4.9
				l-2.7-1.9v-3.9l3.5-2.2l-0.8-0.5l-4.4,1l-5.7-4l-4.4-4.9l-8.1-4.4l-6.7-4.4l2.2-5.4v-2.7l-3,2.7l-4.9,1.9l-6.2-1.9l-9.6-4H260
				l-1,0.8l-10.9-6.6l-3.5-0.5l-4.5-9.8l-6.1,0.5l-6.1,2.5l0.8,7.6l1.9-4.9l1.7,0.5l-2.5,7.4l5.4-4.5l1,2.7l-6.6,7.4l-2.2-0.5
				l-0.8-3.2l-2.2-1.3l-2.2,1.9l-4.5-3l-5.2,3.5l-3,3.5l-5.7,3.5l-7.9-0.3l-0.8-3.5l6.2-1v-2.2l-3.9-1l1.7-4l3.9-6.6v-3l0.3-1.3
				l7.4-3.9l1.7,2.2h4.5l-2.2-4.4l-6.2-0.5l-8.4,4.5l-4,5.7l-3,4.4l-1.9,3.9l-7.1,2.5l-5.2,4.4l-0.5,2.7l3.9,1.7l1.3,3.5l-4.5,5.4
				l-10.9,7.1l-13.1,7.1l-3.5,1.9l-8.9,1.9l-8.9,3.9l3,2.2l-2.5,2.5l-0.8,1.9l-4.5-1.7l-5.4,0.3l-1.3,3.9H120l0.5-4l-6.1,2.2
				l-4.9,1.7l-5.7-2.2l-4.9,3.2h-5.4l-3.5,2.2l-2.7,1.3l-3.5-0.5l-4.4-1.9l-3.9,1l-1.7,1.7l-2.7-1.9v-3.2l5.2-2.2l10.6,1l7.4-2.7
				l3.5-3.5l4.9-1l3-1.3l4.5,0.3l2.7,2.2l1.7-0.5l3.9-4.5l5.2-1.7l5.7-1l2.2-0.5l1,0.8h1.3l2.2-6.2l6.7-2.5l3.2-6.2l3.9-7.6l2.7-2.5
				l0.5-4.4l-2.7,2.2l-5.7,1l-1-4l-2.2-0.5l-1.7,1.7l-0.3,4.9l-2.5-0.3l-2.5-9.8l-2.2,2.2l-1.9-0.8l-0.5-3.2l-6.7,0.3l-3.5,1.9
				l-4.4-0.5l2.5-2.5l0.8-4.4l-1-3.2l2.5-1.7l2.2-0.3l-1-3v-7.4l-1.7-1.7l-1.3,2.5h-10.3l-2.5-2.2l-1-6.6l-3.5-6.1v-1.7l3.5-1.3
				l0.3-3.5l1.9-1.9l-1.3-0.8l-2.2,0.8l-1.9-4.5l1.7-8.4l7.6-5.4l4.4-2.7l3.2-6.2l4.5-2.2l4.4,1.9l0.5,4l4-0.5l5.4-4l2.7,1l1.7,1
				h2.7l3.9-2.2l1.3-7.4c0,0,0.5-4.9,1.7-5.7c0.6-0.5,1.2-1.1,1.7-1.7l-1.9-3.2l-4.4,1.3l-5.4,1.3l-3.2-0.8l-6.1-3l-8.4-0.3
				l-6.1-6.2l0.8-6.6l1-4l-3.5-3l-3.2-6.2l0.8-1.3l11.5-0.8h3.5l1.7,1.7h1l-0.3-2.7l6.6-1l4.4,0.5l2.5,1.9l-2.5,3.5l-0.8,2.5
				l4.5,2.7l8.4,3l3-1.7l-3.9-7.4l-1.7-5.4l1.7-1.3l-5.7-3.2l-0.8-1.9l0.8-2.7l-1.3-6.6l-4.9-7.9l-4-7.1l4.9-3.2h5.4l3,1l7.1-0.3
				l6.2-6.1l1.9-5.2l6.2-4l2.7,1.7l4.5-1l6.2-3.5l1.9-0.3l1.7,1.3l7.6-0.3l4.5-5.2h1.9l6.1,4l3.2,3.5l-0.8,1.9l1,1.9l2.7-2.7
				l6.6,0.5l0.5,6.2l3.2,2.5l12,1l10.6,7.1l2.5-1.7l8.8,4.4l3.5-1l3.2-1.3l8.1,3.2L281.3,758.6z M87.5,807.3l3.5,8.9l-0.3,1.7
				l-4.9-0.5l-3-6.7l-3-2.5h-4l-0.3-4.4l3-4l1.9,4l2.5,2.5L87.5,807.3z M83.1,863.7l6.2,1.3l6.2,1.7l1.3,1.7l-2.7,6.2l-5.2-0.3
				l-5.7-6.1L83.1,863.7z M48.3,839.9l1.9,4.4L52,847l-1.9,1.3l-3.5-5.2v-3.2H48.3z M25.2,963l5.7-3.9l5.7-1.7L41,958l0.8,2.7
				l3.2,0.8l3.2-3.2l-0.5-2.7l4.5-1l4.9,4.4l-1.9,3l-7.4,1.9l-4.5-0.8l-6.2-1.9l-7.4,2.5l-2.7,0.5L25.2,963z M107.6,955.5l2.7,3.2
				l3.5-2.7l-2.5-2.2L107.6,955.5z M112.4,960.5l1.9-3.9l3.5,0.5l-1.3,3.2h-4L112.4,960.5z M152.2,957.3l2.5,3l1.7-1.9l-1.3-3.2
				L152.2,957.3z M167,936.3l1.9,9.8l4.9,1.3l8.4-4.9l7.4-4.4l-2.7-4l0.8-4l-3.5,2.2l-4.9-1.3l2.7-1.9l3.2,1.3l6.6-3l0.8-2.5l-4-1.3
				l1.3-3.2l-4.5,3.2l-7.9,6.1l-8.1,4.9L167,936.3z M238.2,902.9l4-2.5l-1.7-3l-3,1.7L238.2,902.9z"/>
		</g>
		<g id="Hawaii">
			<path id="HI" class="st15" d="M402.6,869.1l3.2-6.1l3.9-0.5l0.5,1.3l-3.5,5.2H402.6z M419.8,862.8l10.3,4.4l3.5-0.5l2.7-6.6
				l-1-5.7l-7.1-0.8l-6.7,3L419.8,862.8z M471.5,879.7l6.2,9.3l4-0.5l1.9-0.8l2.5,2.2l6.2-0.3l1.7-2.5l-4.9-3l-3.2-6.2l-3.5-6.1
				l-9.8,4.9L471.5,879.7z M505.5,894.7l2.2-3.2l7.9,1.7l1-0.8l10.3,1l-0.5,2.2L522,898l-7.4-0.5L505.5,894.7z M514.4,903.4l3.2,6.6
				l5.2-1.9l0.5-2.7l-2.7-3.5l-6.2-0.5L514.4,903.4z M526.2,901.4l3.9-4.9l7.9,4l7.4,1.9l7.4,4.5v3.2l-6.1,3l-8.1,1.7l-4-2.5
				L526.2,901.4z M554.1,927.7l2.7-2.2l5.7,2.7l12.8,6.1l5.7,3.5l2.7,4l3.2,7.4l6.7,4.4l-0.5,2.2l-6.6,5.4l-7.1,2.5l-2.5-1l-5.2,3
				l-4,5.4l-3.9,4.9l-3-0.3l-6.1-4.4l-0.5-7.6l1-4l-2.7-9.6l-3.5-3l-0.3-4.4l3.9-1.7l3.5-5.2l0.8-1.7l-2.7-3L554.1,927.7z"/>
		</g>
		<g id="California">
			<path id="CA" class="st15" d="M216.7,644.4l-33.2-4.5l-16.8-2.5l-0.8-3v-15.8l-0.5-5.4l-4.4-7.1l-1.3-3.9l-6.6-7.1l-4.9-7.9
				l-4.5-0.3l-5.4-1.3l-0.5-1.7l2.5-1l-1-5.4l-2.5-3.5l-8.1-1.3L122,569l-1.9-3.9l-4.4-8.1l-4.9-5.2H106l-6.6-3.5l-7.6-3l-7.1-0.8
				l-4-4.5l0.8-3.2l3-12l1.3-3.2v-4l-2.7-1.7l-0.8-4.9l-2.5-4.4l-5.7-9.8l-2.2-5.2l-2.5-7.9l-2.7-8.9l-5.4-7.4l-0.8-4.9l1.3-6.6h1.9
				l3.5-2.7l1.9-6.1l-1.7-4.5l-4.5-0.8l-3.2-4.4l-3.5-6.2l-0.3-13.8l1-3.2l1-3.9l0.8-4l-9.6-10.6V392l0.5-0.8l0.5-5.4l-2.2-6.7
				l-3.9-8.1l-4.5-7.6l-3-6.6l1.7-6.2l1-9.8l3-5.2l0.5-10.9l-1.9-6.1l-2.7-7.1l-4.5-7.1l1.3-5.4l2.5-7.1l3-1.3l0.5-1.9l5.2-4.4
				l8.8-19.9l0.3-12.5l2.8-8.3l65.2,19.9l43.1,11.1L153,327.5l-14.6,55.7l21.3,32.3l71,104.9l28.8,44l-0.7,5.2l4.7,8.8l1.9,9.1
				l1.7,2.5l1.2,1l-0.3,2.4l-2.4,1.7l-5.7,2.7l-3.2,3.5l-2.9,6.6l-0.8,7.9l-4.4,4.2l-3.9,1.9l-0.2,10.4l-1,3.2l1.7,2.9l5.1,0.5
				l-0.7,2.7l-2.4,3.4l-6.6,1L216.7,644.4z M92.2,562.1l2.2,2.5l-0.3,2.2l-5.4-0.2l-1-2l-1-2.5L92.2,562.1z M95.4,562.1l2-1l6.1,3.5
				l5.2,2l-1.5,1l-7.6-0.3l-2.7-2.7L95.4,562.1z M130.3,595.4l3,3.9l1.3,1.7l2.5,1l1-2.5l-1.7-3l-4.5-3.4l-1.9,0.3v2L130.3,595.4z
				 M127.9,610.1l3,5.4l2,3.2l-2.5,0.3l-2.2-2c-0.5-1-0.9-2.1-1.2-3.2v-3.7H127.9z"/>
		</g>
		<g id="Delaware">
			<path id="DE" class="st15" d="M1415.1,410.9l-1.7,0.8l-6.1-4l-3-7.9l-3.2-6.1l-3.9-1.7l-3.5-6.1l0.8-3.4l0.8-3.9l0.2-1.9l-1,0.2
				l-2.9,1.7l-3.4,2.9l-0.3,0.5l2.4,6.9l3.9,9.4l6.2,27.1l8.4-0.5l10.1-1.9L1415.1,410.9z"/>
		</g>
		<g id="Utah">
			<path id="UT" class="st15" d="M394.7,509.7l41.4,6.1l3.2-23.1l11.8-85l3.9-37l-54.2-5.9l3.7-22.1l3-17.8L349,314.6l-21-4.2
				l-17.8,89.1l-9.1,50.5l-5.6,25.9l-2.9,15.5L394.7,509.7z"/>
		</g>
		<g id="Arizona">
			<path id="AZ" class="st8" d="M237.6,650.8l-0.5,2.5l0.8,1.7l31.8,18l20.4,12.8l24.8,14.5l28.3,16.8l20.7,4l42.8,4.5l10.1-66.7
				l11.8-89.4l7.4-52.2l-41.4-6.1l-102.2-18.5l-0.3,1.9l-4.4,27.8l-3.5,6.4l-4.7-0.3l-2-4.4l-4.4-0.7l-2-1.9l-1.9,0.2l-3.5,2.9
				l-0.5,11.5l-0.5,2.5l-0.8,21l-2.5,4l-0.7,5.6l4.7,8.4l1.9,9.3l1.2,1.9l1.9,1.5l-0.7,4l-2.9,2l-5.7,2.7l-2.7,3l-2.7,6.1l-0.8,8.3
				l-5.1,4.9l-3.2,1.5l-0.2,9.8l-1,2.7l0.8,1.3l6.6,0.7l-1.5,5.1l-2.9,4l-6.2,0.7L237.6,650.8z"/>
		</g>
		<g id="New_Mexico">
			<path id="NM" class="st15" d="M465.1,717.7l-28.1-4.4l-2,16.2l-26.6-3.4l10.1-66.9l11.8-89.6l7.4-52l57.3,6.6l63,7.4l53.9,4.7
				l-0.5,18.2l-2.4-0.2l-12.5,164.5l-47.8-3l-64.2-6.2l1.2,10.6L465.1,717.7z"/>
		</g>
		<g id="Texas">
			<path id="TX" class="st8" d="M486.3,711.3l62.3,6.1l49.3,3.2L610.4,556l91.6,4l-2.9,39.2l-1.7,30.3l0.3,3.4l7.4,6.9l3.4,1.9h3
				l0.8-2l1.2,1.5l4,0.3l1.9-1v-0.3l1.7,0.8l-0.7,6.2l7.6,1.2l4,1.5l7.1,1.2l4.4,3l4.7-3.2l4.5,1l3.7,5.2l1.3,0.2v3.5l5.6,1.9
				l4.2-3.5l2.5,0.8l3.5,0.2l1,3.5l8.8,3.4l3.9-0.8l3.2-6.7h0.2l1.9,3.2l7.7,1.5l5.7,2.2l5.4,1.7l4-2l1.2-3.9h6.1l3.5,1.7l5.1-3.4
				h0.7l0.8,2.4h7.9l3.2-3l2.2,0.7l2.9,3.5l5.6,3.2l5.7,1.7l4.2,2.4l4.5,3.4l5.2-2l3.5,1.3l1.2,33.7l1.2,16l1,6.9l4.4,7.4l1.5,7.6
				l7.1,9.9l0.5,5.2l1,1.3l-1.2,13l-4.9,8.1l2.2,4.4l-0.8,4l-1.3,12.1l-2.2,5.1l0.5,7.1l-9.4,2.7l-16.7,7.6l-1.7,3.2l-4.4,3.2
				l-3.5,2.5l-2.2,1.3l-9.6,8.9l-4.5,3.5l-8.9,5.4l-9.6,4l-10.6,5.7l-3,2.5l-9.8,6.1l-5.7,1l-6.6,9.3l-6.7,0.5l-1.7,3.2l3.9,3.2
				l-2.5,9.3l-2.2,7.6l-1.9,6.6l-1.3,7.6l1.3,4l3,11.8l1.7,10.3l3,4.5l-1.7,2.5l-5.2,3.2l-9.6-6.6l-9.3-1.9l-2.2,0.8l-5.4-1
				l-7.1-5.2l-8.8-1.9l-12.8-5.7l-3.5-6.6l-2.2-10.9l-5.4-3.2l-1-3.9l1-1l0.5-5.7l-2.2-1l-1-1.7l2.2-7.4l-2.7-3.9l-5.4-2.2l-5.7-7.4
				l-6.1-11.1l-7.1-4.4l0.3-3.2l-8.9-20.7l-1.3-7.1l-3-3.2l-0.3-2.5l-10.1-8.9l-4.4-5.2v-1.9l-4.4-3.5l-11.5-1.9l-12.5-1l-5.2-3.9
				l-7.6,3l-6.1,2.5l-3.9,5.4l-1.7,6.2l-7.4,10.3l-4,4l-4.4-1.7l-3-1.9l-3.2-1l-6.6-3.9v-1l-3-3.2l-8.8-3.5l-12.5-13.1l-3.9-7.9V783
				l-5.4-10.9l-0.8-4.5l-2.7-1.7l-1.9-3.5l-8.4-3.5l-2.2-2.7l-12-13.3l-2.2-5.4l-7.9-3.9l-2.5-7.4l-4.4-4.9l-2.9-0.8L486.3,711.3z
				 M780,949.9l-1-12l-4.5-12.1l-1-11.8l2.5-13.8l5.6-11.6l5.9-9.1l5.4-6.1l1,0.3l-8.1,11.1l-7.4,10.9l-3.4,11.1l-0.5,8.8l1.5,10.3
				l4.4,12.1l0.8,8.8l0.3,2.5L780,949.9z"/>
		</g>
		<g id="Oklahoma">
			<path id="OK" class="st15" d="M703.7,558.6l-3,40.9l-1.5,30.3l0.3,2.7l6.7,6.1l2.9,1.5h1.5l1.5-3.5l2.5,3.2l2.7,0.2l0.5-0.3
				l0.3-1.9l4.7,2.4l-0.7,5.9l6.4,0.8l4.2,1.7l7.1,1l3.9,2.7l4.2-2.9l5.9,1.2l3.7,5.2l2,0.2v3.9l3.5,1.2l4.2-3.5l3,1l4.5,0.2
				l1.2,3.9l7.4,3l2.9-0.5l3.2-7.1h2.2l1.9,3.5l7.1,1.3l5.7,2.2l5.1,1.3l2.7-1.2l1.2-4.5h7.6l3.2,1.5l4.5-3.2h2.4l1,2.4h6.1l3.4-3
				l3.9,1l2.9,3.7l5.1,2.9l5.7,1.5l3.2,2l-0.5-63.3l-2.4-18.4l-0.2-14.5l-2.5-11.1l-1-11.5l0.2-7.2l-21.2,0.5l-78-0.8l-75.3-3.5
				l-69.9-3l-0.7,18L703.7,558.6z"/>
		</g>
		<g id="Kansas">
			<path id="KS" class="st15" d="M828.3,431.6l-73.8-1l-68.4-2l-36.5-1.5l-7.2,109.1l40.9,1.7l75.3,3.5l78,1l21.2-0.5l1.2-58.9
				l-2-18.7l-4.2-3.4l-4-5.1l-3.9-6.1l1-5.1l2.9-2.4v-3.5l-1.3-1.2l-4.4-0.3l-5.9-5.7L828.3,431.6z"/>
		</g>
		<g id="Nebraska">
			<path id="NE" class="st14" d="M802,338.6l-1.7-3.9l-0.8-2.7l-4.9-2.7l-8.1-2.5l-3.7-2l-4.4,0.2l-6.2,0.7l-7.1,2l-10.1-6.9
				l-3.7-3.4l-18,1l-69.9-4l-59.9-3.7l-7.2,73.6l55.7,5.6l-2.4,35.5l36.5,1.7l68.4,2l73.8,1h7.6l-3.7-5.1l-4.4-6.6l0.2-3.9l-2.4-4.5
				l-3.2-8.8l-0.7-11.3l-2.4-6.9l-0.8-8.4l-3.9-6.2l-1.7-7.9l-4.7-13.3l-1.7-8.9L802,338.6z"/>
		</g>
		<g id="South_Dakota">
			<path id="SD" class="st14" d="M803.2,299.6l-1.5,5.4l0.7,5.1l4.4,3.4l-2,9.1l-3,6.9l2.5,5.6l1.2,1.9l-2.2,0.2l-1.2-2.7l-1-3.4
				l-5.6-3l-8.1-2.5l-4.2-2.2l-4.9,0.2l-6.6,0.7l-6.4,2l-8.9-6.4l-4.5-4l-18.4,1.3l-69.9-4l-59.9-3.7l2.5-41.8l4.7-57.3l0.7-8.4
				l95.8,6.6l95.8,2.9v4.5l-2.2,2.5l-3.4,2.5l-0.2,3.7l1.9,3.7l6.9,5.7l0.8,4.5v60.5L803.2,299.6z"/>
		</g>
		<g id="North_Dakota">
			<path id="ND" class="st8" d="M803.2,207.5l-0.7-10.4l-3-12.3l-3-22.9l-0.8-16.3l-3.2-5.4l-2.7-9v-17.5l1-6.5l-3-9.3l-48.2-1
				l-31.3-1l-44.6-2.2L621.2,90l-1.5,24.3l-7.9,85.8l95.6,6.6l95.8,2.9L803.2,207.5z"/>
		</g>
		<g id="Illinois">
			<path id="IL" class="st15" d="M1051.9,355.5l-1.3-4.4l-2.2-6.2l-2.7-3l-2.5-4.4l-0.7-9.3l-26.8,3l-29.3,1.7h-20.7l0.3,3.5
				l3.7,1.5l1.9,2.4l0.7,2.4l6.6,5.7l1.2,4l-1.2,5.6l-2.9,6.2l-1.3,4.5l-4,3.2l-3.2,1l-8.8,2.2l-2.2,6.9l1,1.9l3.2,3l-0.3,7.2
				l-3.5,2.7l-0.8,2.2v4.7l-3,1l-2.4,2l-0.7,2l0.7,3.4l-2.7,2.2l-1.5,4.7l0.5,6.6l3.9,11.8l11.8,12.8l9.6,6.2v7.4l1.2,2l11.1,1
				l4.5,2.4l-1.2,5.9l-3.7,10.4l-1.3,5.1l3.4,6.2l10.8,8.9l8.1,1.3l3.7,8.6l3.4,5.7l-1.5,4.7l2.5,6.4l2.9,3.5l2.7-0.5l1.7-3.7l4-2.9
				l4.7-1.7l10.3,4.2l0.8-0.3v-1.9l-2-4.5l0.7-4.7l4-2.7l5.7-2l-0.8-2.2l-1.3-3.4l2-2.2l1.7-4.5v-6.7l0.7-8.3l4.2-5.1l3-6.4l4.2-6.7
				l-0.8-8.9l-3-5.4l-0.5-5.6l1.3-8.9l-1.2-12.1l-1.9-26.6l-2.4-25.8l-1.5-19.7L1051.9,355.5z"/>
		</g>
		<g id="Wisconsin">
			<path id="WI" class="st8" d="M921.7,179.7l4.9,0.8l4.9-1l12.5-5.4l4.9-3.2l3.5-1.3l3.2,2.5l-1.9,1.9l-3.2,5.2l-1,3.2l1.7,1l3-1.7
				l1.9-0.3l4.5,1.3l1,1.9l1.9,0.3l1-1.9l6.7,8.9l13.8,2l13.8,3.7l4.4,1.9l20.7,4.4l2.7,3.9l6.1,2l2.9,17.2l2.7,2.4l2.5,1.5
				l-1.9,3.9l-3,2.7l-3.5,7.9l-2.2,4l0.3,3l2.5,0.5l1.9-3.2l2.5-1.3l1.3-3.9l3.2-3l4.5-6.7l7.1-10.6l1.3-0.8l0.5,1.7l-0.3,3.9
				l-4.9,11.5l-4.5,9.6l-0.8,5.4l-1,4.4l1.3,2.2l-0.3,4.5l-3.2,4l-0.8,3l1,6.1l1,5.7l-2.5,4.4l-1.3,4.9l-1.7,5.2l1.9,4l1,10.3
				l2.7,7.6l-0.3,5.1l-26.8,3l-29.5,1.7h-21.4l-1.2-2.5l-4.9-0.7l-4.4-2.2l-3.9-6.2l-0.5-6.1l3.4-4.9l-0.8-2.4l-3.5-3.7l-1.3-5.6
				l-1-11.5l-3.5-4.2l-11.8-7.6l-6.4-9.1l-5.7-1.7l-3.7-4.7h-5.4l-4.9-5.6l-0.8-10.9l0.2-6.4l2.5-5.2l-1.3-5.4l-4.2-4.7l3-9.1
				l8.8-6.4l2.7-3.2l-0.3-13.6l0.3-4.7l4-4.7L921.7,179.7z"/>
		</g>
		<g id="Michigan">
			<path id="MI" class="st15" d="M1095.4,349.9l32.2-3.2l0.3,1.9l16.7-2.5l20.2-2.9l0.2-1l0.3-2.5l3.5-6.2l3.4-2.9l-0.3-8.6l2.7-2.7
				l1.9-0.5l0.3-6.1l2.5-5.1l1.9,1l0.3,1l1.3,0.3l3.2-1.7l-0.7-15.3l-5.4-13.8l-3.9-15.3l-4-5.4l-4.4-3l-2.7,1.9l-6.6,3l-3.2,8.4
				l-4.5,6.2l-1.9,1l-2.5-1c0,0-4.4-2.5-4-3.5c0.3-1,0.8-8.4,0.8-8.4l5.7-2.2l1.3-5.7l1-4.4l4-2.7l-0.5-16.8l-2.7-3.9l-2.2-1.3
				l-1.3-3.5l1.3-1.3l2.7,0.5l0.3-2.7l-4.4-3.7l-2.2-4.4h-4.4l-7.6-2.5l-9.3-5.7h-4.5l-1,1l-1.7-0.8l-5.2-3.9l-4.9,3l-4.9,3.9
				l0.5,6.1l1.7,0.5l3.5,0.8l0.8,1.3l-4.4,1.3l-4.4,0.5l-2.5,3l-0.5,3.5l0.5,2.7l0.5,9.3l-6.1,3.5l-1-0.3V231l2.2-4l1-4l-1.3-1.3
				l-3.2,1.3l-1.7,7.1l-4.5,1.9l-3,3.2l-0.3,1.7l1,1.3l-1,4.4l-3.9,0.8v1.9l1.3,4l-1.9,10.3l-2.7,6.7l1,7.9l0.8,1.9l-1.3,4l-0.5,1.3
				l-0.5,4.5l6.1,10.1l4.9,10.9l2.5,8.1l-1.3,7.9l-1.7,10.1l-4,8.8l-0.5,4.5l-5.4,5.2L1095.4,349.9z M1039.3,228l-2.2-1.9l-3-17.5
				l-6.2-2.2l-2.9-3.9l-21.2-4.7L999,196l-13.6-3.7l-13.1-1.7l-6.6-8.9l1.2-0.8l4.5-1.3l6.1-3.9v-1.7l1-1l10.1-1.7l4-3.2l7.4-3.5
				l0.3-2.2l3.2-4.9l3-1.3l2.2-3l3.9-3.9l7.4-4l7.9-0.8l1.9,1.9l-0.5,1.7l-6.2,1.7l-2.5,5.2l-3.9,1.3l-0.8,4l-4,5.4l-0.5,4.4
				l1.3,0.8l1.7-1.9l6.1-4.9l2.2,2.2h3.9l5.4,1.7l2.5,1.9l2.5,5.2l4.5,4.5l6.6-0.3l2.5-1.7l2.7,2.2l2.7,0.8l2.2-1.3h1.9l2.7-1.7
				l6.7-6.1l5.7-1.9l11.1-0.5l7.6-3.2l4.4-2.2l2.5,0.3v9.6l0.8,0.5l4.9,1.3l3.2-0.8l10.3-2.7l1.9-1.9l2.5,0.8v11.8l5.4,5.2l2.2,1
				l2.2,1.7l-2.2,0.5l-1.3-0.5l-6.2-0.8l-3.5,1l-3.9-0.3l-5.4,2.5h-3l-9.8-2.2l-8.8,0.3l-3.2,4.4l-11.8,1l-4,1.3l-1.9,5.2l-2.2,1.9
				l-0.8-0.3l-2.5-2.7l-7.6,4h-1l-1.9-2.7l-1.3,0.3l-3.2,7.4l-1.7,6.7l-5.4,11.6L1039.3,228z M989.4,132.9l3-3.5l3.7-1.3l9.1-6.6
				l3.9-1l0.8,0.8l-8.6,8.6l-5.6,3.2l-3.5,1.5L989.4,132.9z M1134.6,186.9l1,4.2l5.4,0.3l2.2-2c0,0-0.2-2.5-0.7-2.7
				c-1-1-1.9-2.1-2.7-3.2l-3.7,0.3l-2.7,0.3l-0.5,1.9L1134.6,186.9z"/>
		</g>
		<g id="Minnesota">
			<path id="MN" class="st15" d="M792.4,107.1l-1,6.6V131l2.7,8.4l3.2,5.6l0.8,16.7l3,22.6l3,12.3l0.7,10.8v8.9l-2.7,3l-3,2.2v2.5
				l1.5,2.9l6.9,5.9l1.2,5.4v60.5l101.5-1l35.7-1.2l-0.8-10.1l-3-3.5l-12.1-7.7l-6.1-8.9l-5.7-1.5l-3.4-4.7h-5.4l-5.9-6.4l-0.8-11.8
				l0.2-6.6l2.5-5.1l-1.2-4.5l-4.7-5.2l3.7-10.3l9.1-6.7l2-2.4l-0.3-13.5l0.3-5.1l4.4-5.1l6.4-4.9l2.2-0.3l7.6-8.4l3-1.3l3.9-6.6
				l4-6.1l5.2-4.4l8.1-3.4l15.5-6.9l6.6-3l1-3.9l-7.4,0.7l-1.2,1.9h-1l-3-5.2l-15,0.5l-1.7,1.3h-1.7l-0.8-2.2l-1.3-3l-4.4,0.8
				l-5.4,5.4l-2.7,1.3h-5.2l-4.4-1.7v-3.5l-2.2-0.3l-0.8,0.8l-4.4-2.2l-0.8-4.9l-2.5,0.8l-0.8,1.7l-4-0.8l-8.9-4l-6.6-4.4h-4.9
				l-2.2-1.7l-3.9,1l-1.9,1.9l-0.5,2.2h-8.1v-3.5l-10.6-0.5l-0.5-2.5h-8.1l-2.7-2.7L850,95.1l-1.3-9.3l-3.2-1.3l-3.9-0.8l-1,0.3
				l-0.5,13.8h-50.7L792.4,107.1z"/>
		</g>
		<g id="Iowa">
			<path id="IA" class="st14" d="M947.7,303.8l3.5,3.5l0.5,1.2l-3.4,5.1l0.5,6.7l4.4,6.9l5.2,2.7l4,0.5l1.5,3l0.3,4l4.2,1.7l1.5,1.9
				l0.8,2.7l6.4,5.6l1,3.2l-1.2,5.1l-2.9,6.2l-1,4l-3.5,2.7l-2.7,0.8l-9.6,2.5l-2.7,8.1l1.3,3l2.9,2.5l-0.3,5.9l-3.2,2.4l-1.2,3v4
				l-2.4,0.7l-2.9,2.4l-0.8,2.9l0.7,2.9l-2.2,1.7l-3.9-4.5l-2.4-4.7l-14,1.3l-16.8,1l-82.8,2l-2.7-7.2l-0.7-11.3l-2.4-7.1l-1.2-8.8
				l-3.7-6.2l-1.7-7.7l-4.5-13.1l-1.9-9.4l-2.4-3.2l-2.2-4.9l2.9-6.4l2-10.3l-4.5-3.7l-0.5-4l1.2-4l3-0.5l102.9-1l35.7-1.2
				L947.7,303.8z"/>
		</g>
		<g id="Missouri">
			<path id="MO" class="st8" d="M1008.8,565l0.8-9.9l7.1-5.7l3.2-1.7v-4.9l1.2-2.7l-1.9-2.7l-4,0.5l-3.5-4.2l-2.9-7.6l1.5-4.4
				l-3.4-5.4l-3-7.7l-7.7-1.2l-11.5-9.4l-3.7-7.1l1.3-5.6l3.7-10.1l1-5.1l-3.2-1.7l-11.6-1l-1.9-3.2v-6.9l-8.9-5.9l-12.1-13.1
				l-3.9-12.3l-0.8-7.1l1.2-4l-4.4-5.2l-2-4l-13,1.3l-16.8,1l-82.2,2l2.2,4.4l-0.2,3.7l3.9,6.1l5.1,6.6l5.2,5.1l4.4,0.3l2.4,1.9v4.9
				l-3,2.7l-0.8,3.9l3.5,5.4l4,5.1l4.4,3.5l2.2,19.5l-1.3,67.4l0.8,9.6l39.9-0.3l39.2-1.2l54.7-2.2l3.7,6.2l-1.3,5.2l-5.2,4.2
				l-0.8,3l8.8,0.8l6.9-1.9L1008.8,565z"/>
		</g>
		<g id="Arkansas">
			<path id="AR" class="st15" d="M999,577.4l-10.8-1.2l1.5-5.2l5.2-4.4l1-3.9l-3-4.9l-53.7,2l-39.2,1.2l-39.7,0.5l2.5,11.6l0.2,14.3
				l2.4,18.4l0.5,64.3l3.5,2.7l5.1-2l4.9,2l0.7,17l42.4-0.3l45.1-1.3l1.5-3.2l-0.5-6.4l-2.9-5.2l2.5-2.4l-2.4-3.7l1.2-4l1.9-9.9
				l4.5-3.9l-1.3-3.7l6.7-9.4l4.2-1.9l-0.2-2.9l-0.8-2.9l4.9-9.8l4.2-1.9l0.3-5.6l3.5-2.4l1.5-6.9l-2.4-6.7l7.1-4l0.5-3.5l2-7.1
				l1.5-5.2L999,577.4z"/>
		</g>
		<g id="Louisiana">
			<path id="LA" class="st8" d="M897.3,812.8l13.6-0.5l17.3,6.1l10.9,1.9l6.2-2.5l5.4,1.9l5.4,1.7l1.3-3.5l-5.4-1.9l-4.4,0.8
				l-4.5-2.7l1.3-2.5l5.2-1.7l3,2.5l3-1.7l5.4,1l2.5,4l0.5,3.9l7.6,0.5l3,3l-1.3,2.7l-2.2,1.3l2.7,2.7l14.1,6.1l6.1-2.2l1.7-4l4.4-1
				l3-2.5l2.2,1.7l1.3,4.9l-3.9,1.3l1,1l5.7-2.2l3.9-5.7l1.3-0.8l-3.5-0.5l1.3-2.7l-0.3-2.5l3.5-0.8l1.9-2.2l1,1.3l1,5.2l7.1,1
				l6.7,3.2l1.7,2.5h4.9l1.9,1.7l3.9-5.2v-2.5h-2.2l-5.7-4.5l-9.8-1.3l-5.4-3.9l1.9-4.5l3.9,0.5l0.3-1l-3-1.7v-0.8h5.4l3-5.2
				l-2.2-3.2l-0.5-4.5l-2.5,0.3l-3.2,3.5l-1,4.4l-5.2-1l-1.7-3l3-3.2l3.2-2.9l-3.7-10.9l-5.7-5.7l1.7-12.3l-0.3-0.8l-2.2,0.3
				l-55.7,2.4l-1.3-4l1.3-14.3l14.5-24.9l-1.5-4.4l2.4-0.7l0.7-3.4l-3.7-3.4l0.2-3.2l-3.4-7.6l-0.7-8.6l0.2-1.2l-44.5,1.3l-42.4,0.2
				l0.7,16.3l1.2,16l0.8,6.2l4.4,7.6l1.5,7.4l7.2,10.1l0.5,5.2l1,1.3l-1.2,14l-4.7,7.7l2,4l-0.8,4.4l-1.3,12.3l-2.2,5.1l0.3,6.2
				L897.3,812.8z"/>
		</g>
		<g id="Mississippi">
			<path id="MS" class="st15" d="M1027.7,790.3l4.4-7.1l3,1.3l11.5-3.2l3.5,0.5l2.5,1.3h8.8l0.7-2.7l-2.9-24.9l-4.7-32l1.7-75.9
				l-0.3-28.1l0.3-10.6l-8.1,0.5l-33,2.7l-21.9,0.7l-0.3,5.4l-4.7,2.2l-4.4,8.6l0.8,2.7l0.2,4l-4.9,1.9l-5.9,8.6l1.3,3.9l-5.1,4.2
				l-1.7,9.6l-1,3.2l2.7,4.2l-2.5,2.4l2.5,4.7l0.5,7.1l-2,4.2l-0.3,1.5l0.7,8.4l3.4,7.6l-0.2,2.9l3.9,3.4l-1.2,5.2l-1.5,0.5l1,3.2
				L960,747.5l-1.3,13.8l0.8,2.5l40.8-1.2l13.8-1.2l3.2-0.5l1,2.4l-1.7,12l5.6,5.6l3.7,10.8L1027.7,790.3z"/>
		</g>
		<g id="Alabama">
			<path id="AL" class="st15" d="M1068.4,780l1,0.3l2.2-4.5l2.5-7.4l3.9,1l5.2,10.1v1.7l-4.5,3.2l4.5,0.5l8.8-4.2l-0.5-12.8l-4.2-3
				l-3.4-3.4l0.7-6.7l17.7-2.5l43.3-4.9l11.3-1l9.4,0.2l-0.8-3.7l-2.5-1.3l-1.5-1.9l1.7-4.4l-0.7-8.8l-2.7-7.6l1.3-8.6l2.9-8.1
				l-0.3-2.9l-3-1.2l-0.8-6.1l-4.5-5.7l-3.4-10.9l-2.4-11.3l-3-8.4l-6.4-26.9l-5.9-13.3l-1.3-9.4l0.2-3.7l-15.2,1.3l-39.4,3.7
				l-20.5,1.3l-0.3,10.8l0.3,28.1l-1.2,52.2l-0.5,23.7l4.7,31.7l2.7,24.8L1068.4,780z"/>
		</g>
		<g id="Tennessee">
			<path id="TN" class="st15" d="M1139.6,600.1l-22.1,2l-39.2,3.7l-63.3,4.5l-19.9,0.7l1.5-1l1.5-7.6l-2-6.1l6.6-3.9l0.7-4.2l2-7.2
				l5.1-16l0.8-9.4l0.5-0.3l20.7-0.3l22.9-1.3l0.2-6.6l5.9-0.2l51.2-5.6l90.9-8.8l17.3-2.5l12.8-0.3l4-3.2l2.2,0.5l-0.2,5.6
				l-0.7,2.7l-4,3.7l-2.7,6.1l-3.4-0.7l-4,1.5l-3.7,5.6l-2.4-0.3l-1.3-2l-1.9,0.7l-7.2,6.7l-1.3,5.2l-7.1,3.7l-7.2,6.1l-6.4,2.5
				l-7.4,4.7l-1,6.1l-4.2,0.8l-3.4,2.9l-0.3,8.1L1139.6,600.1z"/>
		</g>
		<g id="Kentucky">
			<path id="KY" class="st15" d="M1032.5,553.3l21.2-1.2l0.2-6.9h7.2l51.2-5.4l75.9-7.2l9.4-6.1l6.6-3.5l0.2-3.2l10.1-13.1l6.9-6.1
				l3.5-4l-5.6-3.4l-4.2-4.5l-5.1-6.4l-0.8-3.7l-4.4-2.4l-1.5-3.2l-0.3-10.3l-4.4-3.4l-3.2-1.9l-0.8-3.9l-2.2,0.3l-3.4,2l-4.2,4.5
				l-3.2-2.9l-4.2-0.8l-4,2.4h-3.9l-3-3.4l-9.4-0.2l-3-7.6l-4.9-2.5l-3.5,1.3l-7.1,0.3l-0.8,3.5l2,2.5l0.5,3.5l-4.7,3.4l-6.4,3
				l-4.4,0.7l-0.8,7.6l-8.3,6.1l-4.4,6.2l0.3,3.7l-1.5,3.9l-7.6-0.2l-2.2-2.2l-6.6,3.7l0.3,5.6l-4,1l-1.3-2.4l-2.9-2l-4.5,1.9
				l-3,5.9l-3.7-1.7l-2.4-2.7l-6.2,0.7l-9.4,1.7l-4.7,2.2l-2,5.7l-1.7,1.7l2.5,6.2l-7.1,2.4l-3.2,2.4l-0.7,3.7l2,4v3.7l-2.7,0.7
				l-10.3-4.2l-3.9,1.5l-3.4,2.4l-1.3,3l2.9,4l-1.5,3l-0.2,5.6l-4,2.2l-3.5,2.9L1032.5,553.3z"/>
		</g>
		<g id="Pennsylvania">
			<path id="PA" class="st15" d="M1250.4,318.3l2.2-0.8l9.6-9.3l1.2,11.6l56.4-10.9l62.1-13.1l3.9,3.9l5.2,0.7l3.4,9.4l4,3.2
				l4.7,0.7l0.2,0.2l-4.4,5.4v5.2l-3.2,5.2l-0.3,3.2l2.2,2.2l-0.3,3.2l-4,1.9l1.7,5.7l0.3,1.9l4.7,0.5l1.5,4.2l9.9,6.6v0.7l-5.2,5.1
				l-2.5,3.7l-2.9,4.7l-4.5,2l-2.4,0.5l-3.5,2.2l-2.7,2.4l-37.7,7.2l-65.2,13.1l-19,2.4l-6.6,1.2l-8.6-37.7l-7.2-43.6L1250.4,318.3z
				"/>
		</g>
		<g id="New_Jersey">
			<path id="NJ" class="st15" d="M1397.1,379l0.2-2.5l4.5-2.2l2.9-4.7l2.9-4l5.6-5.4v-2l-10.3-6.9l-1.7-4.5l-4.5-0.5l-0.2-1.5
				l-1.2-3.7l3.7-1.9l0.3-4.9l-2.2-2.2l0.3-2l3.2-5.2v-5.2l4.2-5.2l9.4,4.2l10.8,3.2l4.2,2l0.2,3l-0.8,4.5l0.7,7.6l-3.5,3.2
				l-1.9,1.7l0.8,0.8l4.5-0.5l1.9-1.3l2.7,5.7l0.3,15.8l1,1.9l-1.9,9.3l-5.2,10.9l-4.5,6.7l-1.3,8.1l-3.5,4h-1.3l-0.5-4.5l1.3-1.7
				l-0.3-2.5l-6.7-1l-8.1-3.9l-5.4-4.9l-1.7-3.4L1397.1,379z"/>
		</g>
		<g id="Rhode_Island">
			<path id="RI" class="st15" d="M1481.1,290.5l-1.3-7.4l-2.7-10.1l9.6-2.5l2.5,2.2l5.7,7.2l4.7,7.4l-4.7,2.4l-2.2-0.3l-1.9,3
				l-4,3.2l-4.7,1.9L1481.1,290.5z"/>
		</g>
		<g id="Connecticut">
			<path id="CT" class="st15" d="M1444.8,316.1l6.1-5.4l3.2-3.5l1.3,1l4.5-2.5l8.8-1.9l11.8-5.9l-1-7.1l-1.3-7.4l-2.7-10.1l-7.2,1.9
				l-36.7,7.9l1,5.2l2.5,12.3v14l-1.5,3.5l2.9,3.7L1444.8,316.1z"/>
		</g>
		<g id="Massachusetts">
			<path id="MA" class="st15" d="M1504.6,285.1l-0.8-3.9l1.3-2.5l4.9-2.5l1.3,5.2l-0.8,3l-4,2.5v1.7l3.2-2.5l6.6-7.6l6.6-3.2
				l7.1-2.5l-0.5-4l-1.7-4.9l-3.2-4l-3-1.3l-3.5,0.3l-0.8,0.8l1.7,2.2l2.5-1.3l3.5,2.7l1.3,4.5l-3,3l-3.9,1.7l-6.1-0.8l-6.6-10.1
				l-3.9-4.4h-3l-1.9,1.3l-3.2-4.4l0.5-2.5l4-8.8l-4.9-7.4l-6.2,3l-3,4.9l-30.8,7.9l-23.2,4.2l-1,17.8l1.2,8.3l37-8.1l18.9-4.7
				l3.4,2.7l5.7,7.2l4.9,7.9L1504.6,285.1z M1525.6,287.4l3.7-1.2l0.8-2.9l1.7,0.2l1.7,3.9l-2.2,0.8l-6.6,0.2L1525.6,287.4z
				 M1509.8,288.8l3.9-4.4h2.7l3,2.5l-4,1.7l-3.7,1.7L1509.8,288.8z"/>
		</g>
		<g id="Maine">
			<path id="ME" class="st15" d="M1468,149.4l2.5,0.7v-4.4l1.3-9.3l4.4-7.9l2.5-6.7l-3.2-4v-10.1l1.3-1.7l1.3-4.5l-0.3-2.5l-0.3-8.1
				l3-8.1l4.9-15l3.5-7.1h2.2l2.2,0.3v1.9l2.2,3.9l4.5,1l1.3-1.3v-1.7l6.7-4.9l3-3l2.5,0.3l10.1,4l3.2,1.7l15.3,50.3h10.1l1.3,3.2
				l0.3,8.1l4.9,3.9h1.3l0.3-0.8l-0.8-1.9l4.7-0.8l3.2,3.5l3.9,6.2v3.2l-3.5,7.9l-3.2,1l-5.7,5.2l-8.1,9.3h-2.2
				c-1,0-1.7-3.5-1.7-3.5l-3,0.3l-1.7,2.5l-4,2.5l-1.7,2.5l2.7,2.5l-0.8,1l-0.8,4.5l-3.2-0.3v-2.7l-0.5-2.2l-2.5,0.5l-3-5.4
				l-3.5,2.2l2.2,2.5l0.5,1.9l-1.3,2.2l0.5,5.2l0.3,2.7l-2.7,4.4l-4.9,0.8l-0.5,4.9l-8.9,5.2l-2.2,0.8l-2.7-2.5l-5.2,6.1l1.7,5.4
				l-2.5,2.2l-0.3,7.4l-1.9,10.6l-3.7-1.5l-0.8-5.2l-6.7-1.9l-0.3-4.2l-19.7-63L1468,149.4z M1529.5,175.6l2.5-2.5l2.4,1.9l1,4
				l-2.9,1.5L1529.5,175.6z M1540.8,165.7l3,3.2c0,0,2.2,0.2,2.2-0.3s0.3-3.4,0.3-3.4l1.5-1.3l-1.3-3l-3.4,1.2L1540.8,165.7z"/>
		</g>
		<g id="New_Hampshire">
			<path id="NH" class="st15" d="M1494.8,232.5l1.9-5.4l-4.5-2l-0.8-5.2l-6.9-1.9l-0.5-5.1l-19.7-63.1l-1.2,0.1l-1,2.7l-1-0.8
				l-1.7-1.7l-2.5,3.2l-0.3,3.9l0.8,14.2l3.2,4.7v7.2l-6.6,8.1l-4,1.5v1.2l1.9,3.2v14.5l-1.3,15.5l-0.3,7.9l1.7,2.4l-0.3,7.9
				l-0.8,2.5l1.7,1.9l8.6-2l23.2-5.9l2.9-4.9l6.7-3.2L1494.8,232.5z"/>
		</g>
		<g id="Vermont">
			<path id="VT" class="st15" d="M1412.3,182l4,10.9l1.3,8.9l-1.7,6.6l4.2,7.4l1.5,3.9l-1.2,4.4l5.6,2.5l4.9,18.2v8.9l19.4-3.5
				l-1.7-1.9l1-3.2l0.3-7.2l-1.7-2.4l0.3-7.9l1.3-15.7v-14.3l-1.9-3V192l4.7-1.9l5.9-7.4v-6.1l-3.2-4.5l-0.5-9.8l-44,11.4
				L1412.3,182z"/>
		</g>
		<g id="New_York">
			<path id="NY" class="st15" d="M1430.3,331.4l0.8-4.5l-0.3-4l-5.1-2.5l-10.9-3.4l-10.1-4.4l-1-0.7l-4.5-0.5l-3.4-2.5l-3.5-9.9
				l-5.6-0.8l-4-4l-64.7,13.6l-53.2,10.1l-0.8-10.9l2.7-2l2.2-1.9l1.7-2.7l3-1.9l3.2-3l0.8-2.7l3.5-4.5l1.9-1.7l-0.3-1.7l-2.2-5.2
				l-3-0.3l-3.2-10.3l4.9-3l7.4-2.5l6.7-2.2l5.4-0.8l10.6-0.3l3.2,2.2l2.7,0.3l3.5-2.2l4.4-1.9l8.8-0.8l3.5-3l3-5.4l2.7-3.2h3.5
				l3.2-1.9l0.3-3.9l-2.5-3.5l-0.5-2.5l1.9-3.5v-2.5h-3l-3-1.3l-1.3-1.9l-0.3-4.4l9.8-9.3l1-1.3l2.5-4.9l4.9-7.6l4.5-6.2l3.5-4l4-3
				l5.2-2l9.3-2.2l5.4,0.3l7.6-2.5l12.5-3.7l1.2,8.3l4,10.9l1.3,8.4l-1.7,7.1l4.4,7.6l1.3,3.4l-1.5,5.4l6.2,2.9l4.5,17.2v9.8
				l-1,18.4l1.3,9.1l1.2,6.1l2.5,12.3v13.6l-1.9,3.9l3.5,4.5l0.8,1.5l-3.2,3l0.5,2.2l2.2-0.5l2.5-2.2l3.9-4.4l1.9-1l2.7,1l3.9,0.3
				l13.3-6.6l4.9-4.5l2.2-2.5l7.1,2.7l-5.7,6.1l-6.6,4.9l-12,8.9l-4.4,1.7l-9.8,3.2l-6.7,1.9l-1.7-0.7L1430.3,331.4z"/>
		</g>
		<g id="Florida">
			<path id="FL" class="st15" d="M1273.4,744.3l-8.8-1.2l-1.2,1.3l2.5,7.4l-0.7,8.8l-6.9-1.7l-0.3-4.7h-6.9l-8.9,1.2l-54.6,3.2
				l-13.8-0.5l-2.9-2.9l-4.2-7.1h-9.9l-11.1,0.8l-59.6,7.1l-0.5,4.7l2.7,2.7l4.9,3.4l0.5,14.1l5.6-1l10.1-3.5l10.1-0.8l7.4-1l12.8,3
				l13.6,6.6l2.7,2.5l4.9,1.9l2.7,3.2l0.5,4.5l5.4-2.2h6.6l6.1-3.2l6.2-6.1l5.2,0.3l0.8-1.9l-1.3-1.7l0.3-3.2l6.7-1.3h4.4l4.9,2.5
				l7.1,2.5l4,6.2l4.5,1.7l1.9,5.7l5.7,2.7l2.7,4.4l3.2,1l8.8,2.2l2.2,5.2l5.1,6.2v16l-2.5,7.9l0.5,4.5l2.2,8.1l3,6.7l1.3-0.8
				l2.5-7.6l-4.4-1.7l-0.5-1l2.7-1l7.6,1.7l0.3,2.7l-5.4,9.3l-3.5,4l6.1,6.2l4.4,5.2l4.9,8.9l4.9,6.6l3.5,8.4l3,0.5l2.7-3.5l3,1.9
				l4.4,6.7l1,6.1l5.2,7.4l1.3-2.2l6.6,0.5l6.1,3.9l5.7,8.8l1.3,5.7l0.5,4.9l1.9,1.7l2.2,0.8l4-1.7l2.5-2.7l6.6-0.3l5.2-2.5l4.5-5.4
				l-0.8-3.2l-0.5-4l1-3.2l-0.5-3.2l4-2.2l0.5-5.7l-1-3l-0.8-20.2l-2.2-12.8l-7.6-13.8l-6.1-9.8l-4.4-8.9l-4.9-4.9l-4.9-12.5
				l1.2-2.4l1.9-2.2l-2.7-4.9l-6.7-6.2l-8.1-9.3l-6.2-10.6l-8.9-15.8l-6.2-16.3l-3.9-12.3L1273.4,744.3z M1303.2,967.8l4-1l2.2-0.3
				l2.5-3.9l3.9-2.7l2.2,0.8l2.9,0.5l0.7,1.9l-5.9,2l-7.1,2.5l-3.9,2L1303.2,967.8z M1325.9,959.3l2,1.9l4.5-3.5l8.9-7.1l6.2-6.6
				l4.2-11.1l1.7-2.9l0.3-5.7l-1.2,0.8l-1.7,4.7l-2.5,7.7l-5.4,8.9l-7.4,7.1l-5.7,3.2L1325.9,959.3z"/>
		</g>
		<g id="Georgia">
			<path id="GA" class="st15" d="M1273.4,742.6l-9.4-1.2l-2.4,2.7l2.7,7.9l-0.5,6.6l-3.7-1l-0.3-5.1h-8.8l-8.9,1.2l-54.4,3.2
				l-13-0.5l-2.4-2l-4.2-7.2l-1.3-5.6l-2.7-1.5l-0.8-0.8l1.5-3.7l-0.7-9.3l-2.7-7.6l1.3-8.3l2.9-8.1l-0.3-4.2l-3.2-1.2l-0.7-5.4
				l-4.7-5.9l-3.2-10.4l-2.5-11.8l-2.9-8.1l-6.4-26.9l-5.9-13.5l-1.3-8.9l0.2-3.9l5.6-0.5l22.9-2.7l31.3-3.4l10.6-1.9l0.8,2.4
				l-3.7,1.5l-1.5,3.7l0.7,3.4l2.4,2.7l7.2,4.5l5.4-0.2l5.4,7.9l1,2.7l3.9,4.7l0.8,2.9l7.9,3l5.1,3.7l3.9,5.1l3.9,2.2l3.4,3l2.4,4.5
				l3.5,3.2l6.9,3l4.5,10.1l2.9,8.6l4.7,1.2l3.5,3.2l3.4,9.6l4.9,2.7l2.9-1.3l0.7,2l-5.6,10.4l0.8,4.4l-2.5,7.1l-3.9,16.8l1.3,10.6
				L1273.4,742.6z"/>
		</g>
		<g id="South_Carolina">
			<path id="SC" class="st15" d="M1288.2,691.1l-3.5-1.7l-3.2-9.4l-4.2-3.9l-4.2-0.8l-2.5-7.7l-5.1-10.9l-7.1-3l-3.2-3l-2-4.4
				l-4-3.4l-3.9-2.2l-3.7-4.9l-5.4-4l-7.4-2.9l-0.7-2.4l-3.9-4.7l-0.8-2.5l-6.4-9.1l-5.7,0.2l-6.6-4.2l-2-2l-0.3-2.4l1-2.7l4.5-2.2
				l-1.3-3.4l10.8-4.5l15.5-7.6l12-1.5l27.6-0.8l3.9,3.2l3,5.9l7.7-1.3l21.2-2.5l4.5,1.3l21,12.5l17,14l-8.9,9.1l-4.4,10.3
				l-0.8,10.6l-2.7,1.3l-1.9,4.5l-4,1l-3.5,6.1l-4.5,4.5l-3.9,5.7l-2.7,1.3l-6.1,5.7l-4.9,0.3l1.7,5.4l-8.4,8.9l-3.9,2.7
				L1288.2,691.1z"/>
		</g>
		<g id="North_Carolina">
			<path id="NC" class="st15" d="M1334.8,596.9l-21.4-13l-5.2-1.3l-28,3.5l-2.7-5.1l-4.7-3.7l-28.1,0.8l-12.5,1.5l-15.5,7.6
				l-11.5,4.5l-10.9,2l-22.6,2.4l0.2-6.9l2.9-2.2l4.5-1.2l1.2-6.4l6.6-4.2l6.6-2.5l7.6-6.2l7.4-3.9l1.2-5.4l6.9-6.4l1.2,1.7l4.2,0.3
				l4-6.1l2.9-0.7l4.4,0.5l3-6.7l4.2-4l0.8-3l0.2-5.9l7.4,0.2l64.8-9.4l96.8-20.7l3.4,8.1l6.1,10.9l4,4l1,3.9l-4,0.3l1.3,1l-0.5,7.1
				l-4.4,2.2l-1,3.5l-2.2,4.9l-6.2,2.7l-4-0.5l-2.5-0.3l-2.7-2.2l0.5,2.2v1.7h3.2l1.3,2.2l-3.2,10.6h7.1l1,2.7l3.9-3.9l2.2-0.8
				l-3.2,6.1l-5.2,8.1h-2.2l-1.9-0.8l-4.5,1l-8.8,4l-10.9,8.9l-5.7,7.9l-3.2,10.9l-0.8,4l-7.9,0.8l-8.6,2.5L1334.8,596.9z
				 M1417.8,552.8l4.4-4.2l5.4-4.4l2.5-1l0.3-3.4l-1-10.3l-2.5-3.9l-1-3.2l1.2-0.3l4.5,9.3l0.7,7.4l-0.3,5.7l-5.7,2.5l-4.7,4l-1.9,2
				L1417.8,552.8z"/>
		</g>
		<g id="Virginia">
			<path id="VA" class="st15" d="M1415.6,441.2l-0.3,4.7l-4.9,6.4l-0.7,7.7l0.8,5.7l-3,8.4l-3.7,3.2l-2.5-7.7l0.7-9.1l2.7-7.1
				l1.2-5.6l-0.2-2.9L1415.6,441.2z M1314.1,516.3l-65,9.4l-8.1-0.2l-3.7-0.5l-4.2,3.2l-12.3,0.2l-17.3,2.7l-11.3,1l6.9-4.4l6.9-3.9
				v-3.5l9.6-12.3l6.9-6.2l3.7-4.2l6.1,7.2l6.4,1.5l4.5-1.7l3.4-2.5l4,2l7.7-2.2l2.9-7.4l4,1.2l5.4-3.9l2.7,0.7l4.7-5.4l0.3-4.5
				l-1.3-2l8.1-17.7l3-8.8l0.8-7.9l1.2-0.3l1.9,2.9l2.5,2l6.6-0.3l2.9-13.6l5.1-1l1.3-4.4l4.7-3.7l1.9-3.5l3-7.2l0.2-7.7l6.1,2.4
				l11.1,5.2l0.5-8.8l5.7,2l-1,4.9l14.5,5.2l2.4,3l-1.3,5.6l-2.2,2.2l-0.8,2.9l0.8,4l3.4,2.2l6.6,2.4l4.9,1.7l8.3,1.5l3.7,3.5
				l5.4,0.7l1.5,2l-0.7,7.9l2.4,1.9l-0.8,3.2l2,1.3l-0.3,2.4l-4.5-0.2l0.2,2.7l3.9,2.5l0.2,2.4l3,3l0.8,4.2l-4.4,2.4l2.7,2.5
				l9.8-2.9l6.2,10.4L1314.1,516.3z"/>
		</g>
		<g id="District_of_Columbia">
			<circle class="st15" cx="1359.4" cy="418.6" r="8.4"/>
		</g>
	</g>
</g>
</svg>
