<svg width="40" height="40" viewBox="0 0 40 40" fill="none" xmlns="http://www.w3.org/2000/svg">
<rect width="40" height="40" rx="2" fill="#DBF4FF"/>
<path d="M28.4175 21.8959H24.0408C21.8633 21.8959 20.8125 20.8884 20.8125 18.8084V11.4417C20.8125 9.36175 21.8742 8.35425 24.0408 8.35425H28.4175C30.595 8.35425 31.6458 9.36175 31.6458 11.4417V18.8084C31.6458 20.8884 30.5842 21.8959 28.4175 21.8959ZM24.0408 9.97925C22.665 9.97925 22.4375 10.3476 22.4375 11.4417V18.8084C22.4375 19.9026 22.665 20.2709 24.0408 20.2709H28.4175C29.7933 20.2709 30.0208 19.9026 30.0208 18.8084V11.4417C30.0208 10.3476 29.7933 9.97925 28.4175 9.97925H24.0408V9.97925Z" fill="#084762"/>
<path d="M28.4175 31.6458H24.0408C21.8633 31.6458 20.8125 30.6383 20.8125 28.5583V26.6083C20.8125 24.5283 21.8742 23.5208 24.0408 23.5208H28.4175C30.595 23.5208 31.6458 24.5283 31.6458 26.6083V28.5583C31.6458 30.6383 30.5842 31.6458 28.4175 31.6458ZM24.0408 25.1458C22.665 25.1458 22.4375 25.5141 22.4375 26.6083V28.5583C22.4375 29.6524 22.665 30.0208 24.0408 30.0208H28.4175C29.7933 30.0208 30.0208 29.6524 30.0208 28.5583V26.6083C30.0208 25.5141 29.7933 25.1458 28.4175 25.1458H24.0408Z" fill="#084762"/>
<path d="M15.9592 31.6459H11.5826C9.40508 31.6459 8.35425 30.6384 8.35425 28.5584V21.1917C8.35425 19.1117 9.41591 18.1042 11.5826 18.1042H15.9592C18.1367 18.1042 19.1876 19.1117 19.1876 21.1917V28.5584C19.1876 30.6384 18.1259 31.6459 15.9592 31.6459ZM11.5826 19.7292C10.2067 19.7292 9.97925 20.0976 9.97925 21.1917V28.5584C9.97925 29.6526 10.2067 30.0209 11.5826 30.0209H15.9592C17.3351 30.0209 17.5626 29.6526 17.5626 28.5584V21.1917C17.5626 20.0976 17.3351 19.7292 15.9592 19.7292H11.5826V19.7292Z" fill="#084762"/>
<path d="M15.9592 16.4792H11.5826C9.40508 16.4792 8.35425 15.4717 8.35425 13.3917V11.4417C8.35425 9.36175 9.41591 8.35425 11.5826 8.35425H15.9592C18.1367 8.35425 19.1876 9.36175 19.1876 11.4417V13.3917C19.1876 15.4717 18.1259 16.4792 15.9592 16.4792ZM11.5826 9.97925C10.2067 9.97925 9.97925 10.3476 9.97925 11.4417V13.3917C9.97925 14.4859 10.2067 14.8542 11.5826 14.8542H15.9592C17.3351 14.8542 17.5626 14.4859 17.5626 13.3917V11.4417C17.5626 10.3476 17.3351 9.97925 15.9592 9.97925H11.5826V9.97925Z" fill="#084762"/>
</svg>
