<svg width="40" height="40" viewBox="0 0 40 40" fill="none" xmlns="http://www.w3.org/2000/svg">
<rect width="40" height="40" rx="2" fill="#DBF4FF"/>
<path d="M9.85715 22.2215L7.65564 20.0232L13.5421 14.1277L19.5644 8.09611C19.6918 7.97211 19.8161 7.86438 19.9519 7.74826C20.599 8.28326 21.1733 8.88392 21.7768 9.51523C22.0224 9.77214 22.2729 10.0341 22.5351 10.2988C22.5287 10.3089 22.5202 10.3209 22.5091 10.3344C22.4071 10.4504 22.3063 10.556 22.196 10.6613L22.1905 10.6665L22.1851 10.6719L10.636 22.2233C10.636 22.2233 10.636 22.2233 10.636 22.2233C10.4541 22.4052 10.3381 22.5069 10.2561 22.5629C10.2537 22.5646 10.2513 22.5662 10.2491 22.5677C10.2463 22.5659 10.2434 22.564 10.2404 22.562C10.1575 22.5055 10.0406 22.4035 9.85779 22.2222C9.85758 22.2219 9.85737 22.2217 9.85715 22.2215Z" stroke="#084762" stroke-width="1.3"/>
<path d="M20.1233 27.3055L20.1237 27.3059C20.6325 27.8063 21.1343 28.3099 21.6387 28.8161C21.8923 29.0706 22.1466 29.3258 22.4027 29.5815L22.4032 29.582C22.459 29.6377 22.4938 29.6825 22.5138 29.7148C22.5141 29.7154 22.5145 29.716 22.5148 29.7166C22.5113 29.7206 22.5072 29.7249 22.5026 29.7297L22.5016 29.7307C21.7631 30.4967 21.0064 31.2457 20.2438 32.0005C20.1534 32.09 20.0629 32.1796 19.9723 32.2693C19.9593 32.2798 19.9461 32.2902 19.9328 32.3003C19.1479 31.5121 18.3638 30.723 17.5808 29.9329C17.4793 29.8302 17.4203 29.7591 17.3868 29.7108C17.4192 29.6641 17.4761 29.5951 17.5735 29.4957C18.3005 28.7618 19.0306 28.0318 19.7637 27.3055C19.8493 27.2217 19.9081 27.1782 19.9441 27.1567C19.9798 27.1782 20.0382 27.2217 20.1233 27.3055Z" stroke="#084762" stroke-width="1.3"/>
<path d="M24.4922 13.2264L24.4926 13.2268C25.0014 13.7272 25.5032 14.2308 26.0076 14.737C26.2612 14.9915 26.5155 15.2467 26.7716 15.5024L26.7721 15.5029C26.8279 15.5586 26.8627 15.6034 26.8826 15.6357C26.883 15.6363 26.8834 15.6369 26.8837 15.6375C26.8802 15.6415 26.8761 15.6458 26.8715 15.6506L26.8705 15.6516C26.132 16.4176 25.3753 17.1666 24.6127 17.9214C24.5223 18.0109 24.4318 18.1005 24.3412 18.1902C24.3282 18.2007 24.315 18.2111 24.3017 18.2212C23.5168 17.433 22.7327 16.6439 21.9497 15.8538C21.8482 15.7511 21.7892 15.68 21.7557 15.6317C21.7881 15.585 21.845 15.516 21.9424 15.4166C22.6694 14.6827 23.3995 13.9527 24.1326 13.2264C24.2182 13.1426 24.277 13.0991 24.313 13.0776C24.3487 13.0991 24.4071 13.1426 24.4922 13.2264Z" stroke="#084762" stroke-width="1.3"/>
<path d="M15.0646 27.422L15.0728 27.4309C15.0841 27.443 15.0968 27.4535 15.1105 27.4622C15.1469 27.4445 15.1798 27.4197 15.2069 27.3888L15.2211 27.3727L15.2362 27.3576C17.6207 24.9801 20.0016 22.5968 22.3791 20.2077L15.0646 27.422ZM15.0646 27.422L15.0561 27.4135M15.0646 27.422L15.0561 27.4135M15.0561 27.4135C14.2253 26.5835 13.3949 25.7527 12.5649 24.9212L12.5638 24.92M15.0561 27.4135L12.5638 24.92M12.5638 24.92C12.5443 24.9007 12.5303 24.8846 12.5203 24.8719C12.5346 24.8517 12.5573 24.8239 12.5922 24.7889C15.002 22.3792 17.4117 19.9691 19.8214 17.5586M12.5638 24.92L19.8214 17.5586M22.3996 19.9898L22.3994 19.9896C21.9611 19.5411 21.5315 19.1135 21.0983 18.6824C20.7358 18.3216 20.3708 17.9583 19.9961 17.5782C19.9523 17.5343 19.9189 17.5083 19.8966 17.4935C19.8791 17.5058 19.8539 17.5261 19.8215 17.5585C19.8215 17.5585 19.8215 17.5585 19.8214 17.5586M22.3996 19.9898L19.8214 17.5586M22.3996 19.9898C22.4391 20.0302 22.4677 20.0626 22.488 20.0879M22.3996 19.9898L22.488 20.0879M22.488 20.0879C22.4641 20.1179 22.4292 20.1574 22.3792 20.2076L22.488 20.0879Z" stroke="#084762" stroke-width="1.3"/>
<path d="M25.0343 27.0246L25.0425 27.0334C25.0538 27.0455 25.0665 27.056 25.0802 27.0648C25.1167 27.0471 25.1495 27.0222 25.1766 26.9914L25.1908 26.9753L25.206 26.9601C27.5904 24.5826 29.9714 22.1993 32.3489 19.8103L25.0343 27.0246ZM25.0343 27.0246L25.0258 27.0161M25.0343 27.0246L25.0258 27.0161M25.0258 27.0161C24.1951 26.1861 23.3647 25.3553 22.5346 24.5237L22.5335 24.5226M25.0258 27.0161L22.5335 24.5226M22.5335 24.5226C22.514 24.5032 22.5 24.4871 22.49 24.4744C22.5043 24.4542 22.527 24.4264 22.562 24.3915C24.9717 21.9817 27.3814 19.5716 29.7912 17.1611M22.5335 24.5226L29.7912 17.1611M32.3694 19.5924L32.3691 19.5921C31.9308 19.1436 31.5012 18.7161 31.068 18.2849C30.7055 17.9241 30.3405 17.5609 29.9658 17.1808C29.922 17.1368 29.8887 17.1108 29.8663 17.0961C29.8488 17.1084 29.8237 17.1286 29.7912 17.161C29.7912 17.1611 29.7912 17.1611 29.7912 17.1611M32.3694 19.5924L29.7912 17.1611M32.3694 19.5924C32.4089 19.6328 32.4374 19.6652 32.4578 19.6904M32.3694 19.5924L32.4578 19.6904M32.4578 19.6904C32.4338 19.7204 32.399 19.7599 32.349 19.8102L32.4578 19.6904Z" stroke="#084762" stroke-width="1.3"/>
</svg>
