<?xml version="1.0" encoding="utf-8"?>
<!-- Generator: Adobe Illustrator 26.3.0, SVG Export Plug-In . SVG Version: 6.00 Build 0)  -->
<svg version="1.1" id="Layer_1" xmlns="http://www.w3.org/2000/svg" xmlns:xlink="http://www.w3.org/1999/xlink" x="0px" y="0px"
	 viewBox="0 0 1552.5 991.7" style="enable-background:new 0 0 1552.5 991.7;" xml:space="preserve">
<style type="text/css">
	.st0{fill:#3595B2;}
	.st1{fill:#9FCCDA;}
	.st2{fill:#80BCCE;}
</style>
<g>
	<g id="Maryland">
		<path id="MD" class="st0" d="M1394.9,438.7l2.9-6.5l0.9-8.2l-10.7,1.9l-9.9,0.5l-6.5-28.6l-3.9-9.4l-2.6-7.8l-37.8,7.3l-64,12.9
			l3.4,17.7l8.2-8.3l4.2-1.2l2.4-2.6l3.1-4.6l2.7,1.1l4.4-0.3l4.4-3.6l3.4-2.6l3.6-1l2.6,1.9l4.6,2.4l3.2,3.1l2.2,2.4l8.2,2.7
			l-1,4.9l9.9,3.6l3.6-4.4l6.3,4.2l-3.6,5.6l-1.1,5.6l-3.1,4.4v3.6l0.5,1.4l3.4,2.3l5.8,1.9l7.3-0.2l5.3,1.7l3.6,0.5l1.7-3.6
			l-2.6-3.6V433l-4.1-3.6l-3.6-9.4l2.3-9l-0.3-3.6l-2.3-2.3c0,0,2.6-2.7,2.6-3.9c0.2-1.2,0.5-2.4,0.9-3.6l3.2-2.3l3.2-2.7l0.9,1.7
			l-2.6,2.7l-2.3,6.3l0.5,1.9l3.1,0.5l0.9,9.4l-3.6,1.7l0.5,6.1l0.9-0.3l1.9-3.2l2.7,3.1l-2.7,2.3l-0.5,5.8l4.4,5.8l6.6,0.8l2.7-1.4
			l5.4,7.2l1.7,0.7L1394.9,438.7z M1370.2,439.1l1.9,4.3l0.3,3.1l1.9,3.2c0,0,1.5-1.5,1.5-2s-1.1-5.3-1.1-5.3l-1.3-3.9L1370.2,439.1
			z"/>
	</g>
	<g id="West_Virginia">
		<path id="WV" class="st0" d="M1265.6,422l9.9-10.2l4.4-1.4l2.7-2.6l2.6-3.8l1.9,0.5l5.3-0.4l7.8-6.1l2.6-0.8l2.3,1.7l4.4,2
			l5.1,5.1l-0.7,7.3l-9.2-4.4l-8.2-3.1l-0.2,10l-4.4,9.7l-4.9,4.1l-1.4,3.9l-5.1,0.8l-2.9,13.8l-4.8,0.3l-1.9-1.7l-2-3.4l-3.7,0.8
			l-0.9,8.7l-3.1,8.7l-8.5,18.7l1.5,2.4l-0.2,3.4l-3.7,4.3l-2.7-0.7l-5.3,3.9l-4.8-1.4l-3.1,8.3l-6.5,1.7l-4.2-2.3l-4.3,3.2
			l-3.9,1.2l-5.4-1.4l-6.5-7.7l-6-3.7l-4.3-4.3l-4.9-6.3l-0.8-3.9l-4.8-2.9l-1-2.2l-0.3-9.5l0.5,0.2l4.1-0.3l3.1-1.7v-3.8l2.9-2.6
			l0.2-8.8l1.5-6.1l1.9-1.2l0.7,0.5l1.7,1.9l2.9,0.8l1.9-2.3l-1.7-5.3v-2.7l5.3-7.8l2-2.2l3.4,0.8l4.4-3.1l5.3-5.8l4.1-7l0.3-9.5
			l0.9-8.2v-8.3l-1.9-5.1l1.5-2.3l1.4-1.2l7.3,32.9l7.3-1.4l19.1-2.3L1265.6,422z"/>
	</g>
	<g id="Ohio">
		<path id="OH" class="st0" d="M1103.7,348.7l2.9,26.4l8.2,70l6.6-0.3l3.9-1.4l6.1,3.1l2.9,7.2l9.2,0.2l3.1,3.4h2.9l4.1-2.4l5.3,0.9
			l2.6,2.3l3.1-3.4l3.9-2.4l4.1-0.7l1,4.6l2.7,1.7l4.4,3.4l1.4,0.3l3.4-0.2l2-1v-3.6l2.9-2.6l0.2-8.2l1.9-7.2l3.2-2.3l1.7,1.2
			l1.7,1.9l1.2,0.3l0.7-0.7l-1.5-4.6v-3.8l1.9-2.4l4.3-6.1l2.3-2.6l3.8,0.8l3.6-2.6l5.1-5.6l3.8-6.3l0.3-9.2l0.8-8.5v-7.8l-2-5.5
			l2-3.1l2.3-2l-1-4.8l-7.3-43.6l-10.6,6.3l-6.6,3.9l-5.8,6.3l-6.8,6.6l-5.4,1.4l-4.9,0.8l-9.4,4.4l-3.6,0.3l-5.8-5.3l-8.8,1
			l-4.4-2.6l-3.8-2.3L1103.7,348.7z"/>
	</g>
	<g id="Indiana">
		<path id="IN" class="st1" d="M1034.1,357l2.6,1.7l1.9-0.5l3.6-3.2l4.2-3.1l24.3-1.9l31.3-3.1l2.7,26.4l8.3,72.5l-1,4.9l2.2,2.7
			l0.4,2.3l-3.9,2.7l-6.1,2.9l-5.4,0.7l-0.8,8.2l-8,6.1l-4.9,6.8l0.3,4.1l-0.9,2.4h-6l-2.4-2.9l-8.9,5.1l0.3,5.3l-1.5,0.3l-0.9-1.5
			l-4.1-2.9l-6.1,2.6l-2.4,4.9l-2-1l-2.7-3.1l-7.5,0.9l-9.7,1.7l-4.3,2.2v-4.4l0.7-8l3.9-4.9l3.1-6.6l4.6-7.2l-0.8-9.9l-3.1-5.3
			l-0.5-5.4l1.4-9l-1.1-12.1l-1.5-21.5l-4.3-51.3L1034.1,357z"/>
	</g>
	<g id="Oregon">
		<path id="OR" class="st0" d="M88.4,259.6l48.1,12.3l46.9,11.1l28.9,6.4l15-59.8l2-7.5l4.1-9.4l-1.2-2.2l-4.3,0.2l-2.3-3.1l1-2.6
			l0.7-5.6l8-9.7l3.2-1.5l1.5-1.4l1.2-4.6l1.4-1.9l6.6-9.7l6.3-6.8l0.3-5.5l-5.8-4.2l-2-7.7l-22.3-6.5l-26-5.9l-25.2,0.6l-1.9-2.3
			l-8.7,3.1l-7.7-0.8l-4.1-2.7l-2.3,0.9l-8-0.5l-3.4-2.4l-8.2-3l-1.9-0.1l-7.6-2.2l-3,2.6l-10.7-0.4l-8.9-6.5l0.4-15.8l-3.4-6l-7-1
			l-1.1-4.3l-4.1-0.8l-9.9,3.6L69.4,107l-5.5,16.9L58.4,135l-8.5,24l-11.1,23.2L25,203.6l-3.2,4.9l-1.4,14.7l-2.3,10.2l4.6,6
			L88.4,259.6z"/>
	</g>
	<g id="Washington">
		<path id="WA" class="st0" d="M100.5,104.4L96.5,97l-7-1.2l-0.7-4.1l-4.3-1l-4.9-0.8l-3.1,1.7l-3.9-4.9l0.5-4.9l4.6-0.5l2.7-6.8
			l-4.4-1.9l0.3-6.3l7.5-1l-4.6-4.6l-2.6-12.1l1-4.9V30.1l-3.1-5.4l3.9-16l3.6,0.9l4.1,4.9l4.6,4.4l5.4,3.2l7.7,3.6l5.3,1l4.9,2.6
			L120,31l4-0.4v-4l2.3-1.9l3.6-2.3l0.5,1.9l0.5,3.1l-3.9,0.9l-0.5,3.6l3.1,2.6l1.8,4.2l1,3.2l2.6-0.3l0.3-2.3l-1.7-2.3l-0.8-5.4
			l1.4-3.1l-1-2.6v-4.4l3.1-6.1l-1.9-4.4l-4.1-8.2l0.5-1.4L133,0l7.5,2.6L157,7.2l14.7,3.2l34,9.7l39.2,9.7l25.5,5.9l-8.2,30
			l-7.7,35.4l-5.8,27.6l-0.7,15.6l-22-6.3l-26-5.9l-24.7,0.6l-1.9-2.6l-9.7,3.6l-6.6-0.7l-4.4-3.1l-2.9,1.1l-7.1-0.4l-2.9-2.3
			l-8.8-3l-2-0.3l-8.2-2.4l-3.3,2.8L108,125l-7.9-5.6L100.5,104.4z M116.8,10l3.4-0.3l0.8,2.4l2.6-2.7h3.9l1.4,2.6l-2.5,2.9l1,1.4
			l-1.2,3.4l-2.4,0.7c0,0-1.5,0.2-1.5-0.3c0.7-1.5,1.6-3,2.6-4.4l-2.9-1l-0.5,2.6l-1.1,1l-2.6-3.9L116.8,10z"/>
	</g>
	<g id="Nevada">
		<path id="NV" class="st0" d="M183.2,284.7l65.9,14.5l44.3,8.9l-18.1,90.4l-9.2,50.7l-5.6,26.4l-3.6,18.9l-4.4,27.9l-2.9,5.3
			l-2.7-0.2l-1.9-4.4l-4.8-0.8l-2.3-1.9l-3.1,0.2l-1.5,1.4l-3.1,2.3l-0.5,12.4l-0.5,2.5l-0.9,21.1l-1.9,3.1L198,519.8L126.3,414
			l-21.2-32.3l14.6-55.5l13.6-53.3L183.2,284.7z"/>
	</g>
	<g id="Idaho">
		<path id="ID" class="st1" d="M272.1,36.1l-8.2,29.6l-7.7,35.6l-5.8,27.6l-0.7,16.5l2,7.6l6,4.5l-0.3,6.7l-6.6,7.5l-7.7,11.2
			l-1.5,4.9l-2,1.9l-3.1,1.4l-7.3,9l-0.7,5.3l-0.7,1.9l1,1.7l4.4-0.2l1.9,3.9l-4.1,9.9l-2,7.2l-15,60.1l35.2,7.7l67.3,13.5
			l59.2,10.4l8.3-49.7l6.5-41l-4.6-4.1l-0.7-4.4l-1.4-1.9l-3.6,1.7l-1.2,4.4l-5.5,0.8l-6.6-2.7l-6.5,0.2l-4.3,1.2l-5.8-2.6l-4.1,0.3
			l-4.1,3.4l-3.4-1.9l-1.2-6.8l1.2-4.9l-4.3-4.9l-5.6-4.4l-4.6-22.3l-0.2-8l-0.5-0.2l-0.3,0.7l-8.7,6l-2.9-0.3L307,174l-0.3-5.3
			l11.9-29.2l-0.7-3.3l-5.8-2l-1-2l-4.4-5.9l-7.8-17.4l-5.4-2.6l-3.4-8.4l2.3-7.9l-5.6-12.9l7.5-36.6L272.1,36.1z"/>
	</g>
	<g id="Montana">
		<path id="MT" class="st1" d="M588.4,109.6l-9,97.3l-2.3,25.9l-100.6-11.3l-83.4-12.1l-2.4,19.1l-3.2-2.9l-0.7-4.3l-2.3-3.2
			l-5.6,2.6l-1.1,4.3l-3.9,0.5l-6.4-2.7l-7,0.2l-4.1,1.1l-5.4-2.4l-5.1,0.3l-3.6,3.2l-1.5-1l-1.2-5.8l1.2-5.4l-4.6-5.5l-5.6-4.2
			l-4.2-21.5l-0.2-9l-2.7-1.4l-1,1.7l-7.7,5.4l-2-0.2l-3.9-4.8l-0.3-4.8l11.9-29.2l-1-4.5l-6-1.9l-0.7-1.5l-4.6-6l-7.8-17.7
			l-5.4-2.7l-3.1-7.3l2.3-7.9l-5.4-12.9l7.5-36.3l55.7,11.7l31.3,5.8l55,9l49.9,6.8l49.7,6l52.4,5.2L588.4,109.6z"/>
	</g>
	<g id="Wyoming">
		<path id="WY" class="st1" d="M574.6,264.7L572,308l-7.5,74.9l-4.6-0.5l-141.8-15.5l-47.5-5.1l3.4-20.4l11.7-69.8l6.5-41.2
			l2.3-19.1l82.1,11.9l100.6,11.1L574.6,264.7z"/>
	</g>
	<g id="Colorado">
		<path id="CO" class="st0" d="M620.9,390l-61.3-6l-134.7-14.7l-3.7,37.6l-11.9,85.8l-3.2,23.3l57.9,6.6l63.9,7.5l59.1,5.1l24.3,1
			L620.9,390z"/>
	</g>
	<g id="Alaska">
		<path id="AK" class="st0" d="M247.9,761.5l-0.5,145.4l2.7,1.7l5.3,0.3l2.6-1.9h4.4l0.4,4.9l11.9,11.6l0.9,4.4l5.8-3.2l1-0.3
			l0.5-5.3l2.6-2.7l1.9-0.4l3.2-2.6l5.3,3.6l1,4.9l3.2,1.9l1.9,4.1l6.6,3.1l5.8,10.2l4.6,6.6l3.9,4.6l2.6,6.3l8.5,3.1l8.8,3.6
			l1.7,7.5l0.9,5.3l-1.7,5.9l-3.1,3.9l-2.7-1.4l-2.5-5.3l-4.6-2.6l-3.1-1.9l-1.4,1.4l2.6,4.6l0.3,6.3l-1.9,0.8l-3.3-3.2l-3.6-2.3
			l0.9,2.7l2.3,3.1l-1.4,1.4c-0.9-0.4-1.7-0.9-2.3-1.7c-0.8-1-3.6-5.8-3.6-5.8l-1.7-3.9c0,0-0.5,2.3-1.7,1.7
			c-0.9-0.7-1.7-1.6-2.3-2.6l3.2-3.2l-2.6-2.6v-8.5h-1.4l-1.4,5.8l-1.9,0.8l-1.7-6.3l-1-6.3l-1.4-0.8l0.5,9.7v1.9l-2.6-2.3
			l-6.1-10.2l-3.6-0.8l-1-6.3l-2.7-4.9l-2.7-1.9v-3.9l3.6-2.3l-0.8-0.5l-4.4,1l-5.8-4.1l-4.4-4.9l-8.2-4.4l-6.8-4.4l2.3-5.4v-2.7
			l-3.1,2.7l-5,1.9l-6.3-1.9l-9.7-4.1h-9.4l-1,0.8l-11.1-6.6l-3.6-0.5l-4.6-9.9l-6.1,0.5l-6.1,2.6l0.8,7.7l1.9-4.9l1.7,0.5l-2.6,7.5
			l5.4-4.6l1,2.7l-6.6,7.5l-2.3-0.5l-0.8-3.2l-2.3-1.4l-2.3,1.9l-4.6-3.1L178,911l-3.1,3.6l-5.8,3.6l-8-0.3l-0.9-3.6l6.3-1v-2.3
			l-3.9-1l1.7-4.1l3.9-6.6v-3l0.3-1.4l7.5-3.9l1.7,2.3h4.6l-2.2-4.4l-6.3-0.5l-8.5,4.6l-4.1,5.8l-3.1,4.4l-1.9,3.9l-7,2.6l-5.3,4.4
			l-0.5,2.7l3.9,1.7l1.4,3.6l-4.6,5.4l-11.1,7.2l-13.3,7.2l-3.6,1.9l-9,1.9l-9,3.9l3.1,2.3l-2.6,2.6l-0.8,1.9l-4.6-1.7l-5.5,0.3
			l-1.4,3.9h-1.7l0.5-4.1l-6.1,2.3l-4.9,1.6l-5.8-2.3l-4.9,3.2h-5.4l-3.6,2.3l-2.7,1.4l-3.6-0.5l-4.5-1.9l-3.9,1l-1.7,1.7l-2.7-1.9
			v-3.2l5.3-2.3l10.7,1l7.5-2.7l3.6-3.6l4.9-1l3.1-1.4l4.6,0.3l2.7,2.3l1.7-0.5l3.9-4.6l5.3-1.7l5.8-1l2.3-0.5l1,0.9h1.4l2.3-6.3
			l6.8-2.6l3.2-6.3l3.9-7.7l2.7-2.6l0.5-4.4l-2.7,2.3l-5.8,1l-1-4.1l-2.3-0.5l-1.7,1.7l-0.4,4.9l-2.6-0.4l-2.6-9.9l-2.3,2.3
			l-1.9-0.8l-0.5-3.2l-6.8,0.3l-3.6,1.9l-4.4-0.5l2.6-2.6l0.9-4.4l-1-3.2l2.6-1.7l2.3-0.3l-1-3.1v-7.5l-1.7-1.7l-1.4,2.6H72.9
			l-2.6-2.3l-1-6.6l-3.6-6.1v-1.7l3.6-1.4l0.3-3.6l1.9-1.9l-1.4-0.9l-2.3,0.9l-1.9-4.6l1.7-8.5l7.7-5.4l4.4-2.7l3.2-6.3l4.6-2.3
			l4.4,1.9l0.5,4.1l4.1-0.5l5.4-4.1l2.7,1l1.7,1h2.7l3.9-2.3l1.4-7.5c0,0,0.5-4.9,1.7-5.8c0.6-0.5,1.2-1.1,1.7-1.7l-1.9-3.2
			l-4.4,1.4l-5.4,1.4L103,818l-6.1-3.1l-8.5-0.3l-6.2-6.3l0.8-6.6l1-4.1l-3.6-3.1l-3.2-6.3l0.8-1.4l11.6-0.8h3.6l1.7,1.7h1l-0.3-2.7
			l6.6-1l4.4,0.5l2.6,1.9l-2.6,3.6l-0.8,2.6l4.6,2.7l8.5,3.1l3.1-1.7l-3.9-7.5l-1.7-5.4l1.7-1.4l-5.8-3.2l-0.9-1.9l0.9-2.7l-1.4-6.6
			l-4.9-8l-4.1-7.2l4.9-3.2h5.5l3.1,1l7.2-0.3l6.3-6.1l1.9-5.3l6.3-4.1l2.7,1.7l4.6-1l6.3-3.6l1.9-0.3l1.7,1.4l7.7-0.3l4.6-5.3h1.9
			l6.1,4.1l3.2,3.6l-0.8,1.9l1,1.9l2.7-2.7l6.6,0.5l0.5,6.3l3.2,2.6l12.1,1l10.7,7.2l2.6-1.7l8.9,4.4l3.6-1l3.2-1.4l8.2,3.2
			L247.9,761.5z M51.9,810.7l3.6,9l-0.3,1.7l-4.9-0.5l-3.1-6.8l-3.1-2.6H40l-0.3-4.4l3.1-4.1l1.9,4.1l2.6,2.6L51.9,810.7z
			 M47.5,867.7l6.3,1.4l6.3,1.7l1.4,1.7l-2.7,6.3l-5.3-0.3l-5.8-6.1L47.5,867.7z M12.3,843.7l1.9,4.4l1.9,2.7l-1.9,1.4l-3.6-5.3
			v-3.2H12.3z M-11.1,968.3l5.8-3.9l5.8-1.7l4.4,0.5l0.9,2.7l3.2,0.8l3.2-3.2l-0.5-2.7l4.6-1l4.9,4.4l-1.9,3l-7.5,1.9l-4.6-0.8
			L1,966.3l-7.5,2.6l-2.7,0.5L-11.1,968.3z M72.2,960.6l2.7,3.2l3.6-2.7l-2.6-2.3L72.2,960.6z M77.1,965.7l1.9-3.9l3.6,0.5l-1.4,3.2
			h-4.1L77.1,965.7z M117.3,962.5l2.6,3.1l1.7-1.9l-1.4-3.2L117.3,962.5z M132.3,941.1l1.9,9.9l4.9,1.4l8.5-4.9l7.5-4.4l-2.7-4.1
			l0.8-4.1l-3.6,2.3l-4.9-1.4l2.7-1.9l3.2,1.4l6.6-3.1l0.8-2.6l-4.1-1.4l1.4-3.2l-4.6,3.2l-8,6.2l-8.2,4.9L132.3,941.1z
			 M204.3,907.4l4.1-2.6l-1.7-3.1l-3.1,1.7L204.3,907.4z"/>
	</g>
	<g id="Hawaii">
		<path id="HI" class="st0" d="M370.5,873.2l3.2-6.1l3.9-0.5l0.5,1.4l-3.6,5.3H370.5z M387.8,866.9l10.4,4.4l3.6-0.5l2.7-6.6l-1-5.8
			l-7.2-0.9l-6.8,3.1L387.8,866.9z M440.1,883.9l6.3,9.4l4.1-0.5l1.9-0.9l2.6,2.3l6.3-0.3l1.7-2.6l-4.9-3.1l-3.2-6.3l-3.6-6.1
			l-9.9,4.9L440.1,883.9z M474.5,899.1l2.3-3.2l8,1.7l1-0.9l10.4,1l-0.5,2.3l-4.5,2.5l-7.5-0.5L474.5,899.1z M483.5,907.9l3.2,6.6
			l5.3-1.9l0.5-2.7l-2.7-3.6l-6.3-0.5L483.5,907.9z M495.4,905.9l3.9-4.9l8,4.1l7.5,1.9l7.5,4.6v3.2l-6.1,3.1l-8.1,1.7L504,917
			L495.4,905.9z M523.7,932.4l2.7-2.3l5.8,2.7l12.9,6.1l5.8,3.6l2.7,4.1l3.2,7.5l6.8,4.4l-0.5,2.3l-6.6,5.4l-7.2,2.6l-2.6-1
			l-5.3,3.1l-4.1,5.4l-3.9,4.9l-3.1-0.3l-6.1-4.4l-0.5-7.7l1-4.1l-2.7-9.7l-3.6-3.1l-0.3-4.4l3.9-1.7l3.6-5.3l0.8-1.7l-2.7-3.1
			L523.7,932.4z"/>
	</g>
	<g id="California">
		<path id="CA" class="st0" d="M182.5,646.1l-33.5-4.6l-17-2.6l-0.9-3.1v-16l-0.5-5.4l-4.4-7.2l-1.4-3.9l-6.6-7.2l-4.9-8l-4.6-0.3
			l-5.4-1.4l-0.5-1.7l2.6-1l-1-5.4l-2.6-3.6l-8.2-1.4l-6.6-3.6l-1.9-3.9l-4.4-8.2l-4.9-5.3h-4.9l-6.6-3.6l-7.7-3.1l-7.1-0.9
			l-4.1-4.6l0.8-3.2L49,525l1.4-3.2v-4.1l-2.7-1.7l-0.8-4.9l-2.6-4.4l-5.8-9.9l-2.3-5.3l-2.6-8l-2.7-9l-5.4-7.5l-0.9-4.9l1.4-6.6H28
			l3.6-2.7l1.9-6.1l-1.7-4.6l-4.6-0.8l-3.2-4.4l-3.6-6.3l-0.4-14l1-3.2l1-3.9l0.9-4.1l-9.7-10.7v-3.6l0.5-0.8l0.5-5.5l-2.3-6.8
			L8,369.6L3.4,362l-3.1-6.6L2,349l1-9.9l3.1-5.3l0.5-11.1l-1.9-6.1L2,309.5l-4.6-7.2l1.4-5.4l2.6-7.2l3.1-1.4l0.5-1.9l5.3-4.4
			l8.9-20.1l0.3-12.6l2.9-8.3l65.9,20.1l43.6,11.2l-13.6,53.3L103.4,382l21.5,32.7l71.8,106.1l29.1,44.4l-0.7,5.3l4.8,8.9l1.9,9.2
			l1.7,2.6l1.2,1l-0.3,2.4l-2.4,1.7l-5.8,2.7l-3.2,3.6l-2.8,6.6l-0.8,8l-4.5,4.3l-3.9,1.9l-0.2,10.6l-1,3.2l1.7,2.9l5.1,0.5
			l-0.7,2.7l-2.4,3.4l-6.6,1L182.5,646.1z M56.7,562.8l2.3,2.6l-0.4,2.3l-5.4-0.2l-1-2l-1-2.6L56.7,562.8z M59.9,562.8l2-1l6.1,3.6
			l5.3,2l-1.5,1l-7.7-0.3l-2.7-2.7L59.9,562.8z M95.2,596.6l3.1,3.9l1.4,1.7l2.6,1l1-2.6l-1.7-3.1l-4.6-3.4l-1.9,0.3v2H95.2z
			 M92.8,611.4l3.1,5.4l2,3.2l-2.6,0.4l-2.3-2c-0.5-1-0.9-2.1-1.2-3.2v-3.7H92.8z"/>
	</g>
	<g id="Delaware">
		<path id="DE" class="st0" d="M1394.2,410l-1.7,0.8l-6.1-4.1l-3.1-8l-3.2-6.1l-3.9-1.7l-3.6-6.1l0.8-3.4l0.9-3.9l0.2-1.9l-1,0.2
			l-2.9,1.7l-3.4,2.9l-0.3,0.5l2.4,7l3.9,9.5l6.3,27.4l8.5-0.5l10.2-1.9L1394.2,410z"/>
	</g>
	<g id="Utah">
		<path id="UT" class="st0" d="M362.5,509.9l41.9,6.1l3.2-23.4l11.9-86l3.9-37.4l-54.8-6l3.8-22.3l3.1-18.1l-59.1-10.4l-21.3-4.3
			l-18.1,90.1l-9.2,51.1l-5.6,26.2l-2.9,15.7L362.5,509.9z"/>
	</g>
	<g id="Arizona">
		<path id="AZ" class="st2" d="M203.6,652.6l-0.5,2.6l0.8,1.7l32.2,18.2l20.6,12.9l25,14.7l28.6,17l20.9,4.1l43.2,4.6l10.2-67.4
			l11.9-90.4l7.5-52.8l-41.8-6.1L259,492.9l-0.3,1.9l-4.4,28.1l-3.6,6.5l-4.8-0.3l-2-4.4l-4.4-0.7l-2.1-1.8l-1.9,0.2l-3.6,2.9
			l-0.5,11.6l-0.5,2.6l-0.8,21.2l-2.6,4.1l-0.7,5.6l4.8,8.5l1.9,9.4l1.2,1.9l1.9,1.5l-0.7,4.1l-2.9,2l-5.8,2.7l-2.7,3.1l-2.7,6.1
			l-0.9,8.3l-5.1,4.9l-3.2,1.5l-0.2,9.9l-1,2.7l0.9,1.4l6.6,0.7l-1.5,5.1l-2.9,4.1l-6.3,0.7L203.6,652.6z"/>
	</g>
	<g id="New_Mexico">
		<path id="NM" class="st0" d="M433.6,720.1l-28.4-4.4l-2,16.3l-26.9-3.4l10.2-67.6l11.9-90.6l7.5-52.6l57.9,6.6l63.7,7.5l54.5,4.8
			l-0.5,18.4L579,555l-12.6,166.3l-48.4-3.1l-64.9-6.3l1.2,10.7L433.6,720.1z"/>
	</g>
	<g id="Texas">
		<path id="TX" class="st2" d="M455.1,713.7l63,6.1L568,723l12.6-166.3l92.6,4.1l-2.9,39.7l-1.7,30.6l0.3,3.4l7.5,7l3.4,1.9h3.1
			l0.8-2l1.2,1.5l4.1,0.3l1.9-1v-0.4l1.7,0.9l-0.7,6.3l7.7,1.2l4.1,1.5l7.2,1.2l4.4,3.1l4.8-3.2l4.6,1l3.7,5.3l1.4,0.2v3.6l5.6,1.9
			l4.3-3.6l2.6,0.9l3.6,0.2l1,3.6l8.9,3.4l3.9-0.9l3.2-6.8h0.2l1.9,3.2l7.8,1.5l5.8,2.3l5.4,1.7l4.1-2l1.1-3.9h6.1l3.6,1.7l5.1-3.4
			h0.7l0.8,2.4h8l3.2-3.1l2.3,0.7l2.9,3.6l5.6,3.2l5.8,1.7l4.2,2.4l4.6,3.4l5.3-2l3.6,1.4l1.1,34.1l1.2,16.2l1,7l4.4,7.5l1.5,7.7
			l7.2,10l0.5,5.3l1,1.4l-1.1,13.1l-5,8.1l2.3,4.4l-0.9,4.1l-1.4,12.3l-2.3,5.1l0.5,7.2l-9.5,2.7l-16.9,7.7L833,833l-4.4,3.2
			l-3.6,2.6l-2.3,1.4l-9.7,9l-4.6,3.6l-9,5.5l-9.7,4.1l-10.7,5.8l-3.1,2.6l-9.7,6.1l-5.8,1l-6.6,9.4l-6.8,0.5l-1.7,3.2l3.9,3.2
			l-2.6,9.4l-2.3,7.7l-1.9,6.6l-1.4,7.7l1.4,4.1l3.1,11.9l1.7,10.4l3.1,4.6l-1.7,2.6l-5.3,3.2l-9.7-6.6l-9.4-1.9l-2.3,0.8l-5.4-1
			l-7.2-5.3l-8.9-1.9l-12.9-5.8L684,934l-2.3-11.1l-5.3-3.2l-1-3.9l1-1l0.5-5.8l-2.3-1l-1-1.7l2.3-7.5l-2.7-3.9l-5.5-2.3l-5.8-7.5
			l-6.1-11.2l-7.1-4.4l0.3-3.2l-9-20.9l-1.4-7.2l-3.1-3.1l-0.3-2.6l-10.2-9l-4.5-5.4v-1.9l-4.4-3.6l-11.6-1.9l-12.6-1l-5.3-3.9
			l-7.7,3.1l-6.1,2.6l-3.9,5.5l-1.7,6.3l-7.5,10.4l-4.1,4.1l-4.4-1.7l-3.1-1.9l-3.2-1l-6.6-3.9v-1l-3.1-3.2l-8.9-3.6L513.8,808
			l-3.9-8v-13.8l-5.4-11.1l-0.9-4.6l-2.7-1.7l-1.8-3.6l-8.5-3.6l-2.3-2.7l-12.1-13.5l-2.3-5.4l-8-3.9l-2.6-7.5l-4.4-4.9l-2.9-0.8
			L455.1,713.7z M752,954.9l-1-12.1l-4.6-12.3l-1.1-11.9l2.6-14l5.6-11.7l6-9.2l5.4-6.1l1,0.3l-8.2,11.2l-7.5,11.1l-3.4,11.2
			l-0.5,8.8l1.5,10.4l4.4,12.3l0.9,8.9l0.3,2.6L752,954.9z"/>
	</g>
	<g id="Oklahoma">
		<path id="OK" class="st0" d="M674.9,559.3l-3.1,41.4l-1.5,30.6l0.4,2.7l6.8,6.1l2.9,1.5h1.5l1.5-3.6l2.6,3.2l2.7,0.2l0.5-0.3
			l0.3-1.9l4.8,2.4l-0.7,6l6.5,0.8l4.3,1.7l7.1,1l3.9,2.7l4.3-2.9l6,1.2l3.8,5.3l2,0.2v3.9l3.6,1.2l4.3-3.6l3.1,1l4.6,0.2l1.2,3.9
			l7.5,3.1l2.9-0.5l3.2-7.2h2.3l1.9,3.6l7.2,1.4l5.8,2.3l5.1,1.4l2.7-1.1l1.2-4.6h7.7l3.2,1.5l4.6-3.2h2.4l1,2.4h6.1l3.4-3.1l3.9,1
			l2.9,3.8l5.1,2.9l5.8,1.5l3.2,2l-0.5-64l-2.4-18.7l-0.2-14.7l-2.6-11.2l-1-11.6l0.2-7.3l-21.5,0.5l-78.8-0.8l-76.1-3.6l-70.7-3.1
			l-0.7,18.2L674.9,559.3z"/>
	</g>
	<g id="Kansas">
		<path id="KS" class="st0" d="M800.9,430.9l-74.6-1l-69.1-2l-36.9-1.5L613,536.6l41.4,1.7l76.1,3.6l78.8,1l21.5-0.5l1.2-59.6
			l-2-18.9l-4.3-3.4l-4.1-5.2l-3.9-6.1l1-5.1l2.9-2.4v-3.6l-1.4-1.2l-4.4-0.3l-5.9-5.8H800.9z"/>
	</g>
	<g id="Nebraska">
		<path id="NE" class="st1" d="M774.3,336.9l-1.7-3.9l-0.9-2.7l-4.9-2.7l-8.2-2.6l-3.8-2l-4.4,0.2l-6.3,0.7l-7.2,2l-10.2-7l-3.8-3.4
			l-18.2,1l-70.7-4.1l-60.6-3.8l-7.4,74.4l56.3,5.6l-2.4,35.9l36.9,1.7l69.1,2l74.6,1h7.7l-3.7-5.1l-4.4-6.6l0.2-3.9l-2.4-4.7
			l-3.2-8.8l-0.7-11.4l-2.4-7l-0.9-8.5l-3.9-6.3l-1.7-8l-4.8-13.5l-1.7-9L774.3,336.9z"/>
	</g>
	<g id="South_Dakota">
		<path id="SD" class="st1" d="M775.5,297.4l-1.5,5.4l0.7,5.1l4.4,3.4l-2,9.2l-3.1,7l2.6,5.6l1.2,1.9l-2.3,0.2l-1.2-2.7l-1-3.4
			l-5.6-3.1l-8.2-2.6l-4.3-2.3l-4.9,0.2l-6.6,0.7l-6.5,2l-9-6.5l-4.6-4.1l-18.5,1.4l-70.7-4.1l-60.6-3.8l2.6-42.2L581,207l0.7-8.5
			l97,6.6l96.9,2.9v4.6l-2.3,2.6l-3.4,2.6l-0.2,3.7l1.9,3.8l7,5.8l0.8,4.6v61.1L775.5,297.4z"/>
	</g>
	<g id="North_Dakota">
		<path id="ND" class="st2" d="M775.5,204.3l-0.7-10.6l-3.1-12.4l-3.1-23.2l-0.8-16.5l-3.2-5.4l-2.7-9v-17.7l1-6.6l-3.1-9.4l-48.7-1
			l-31.6-1l-45.1-2.3l-42.9-3.7l-1.5,24.5l-8,86.7l96.7,6.7l96.9,2.9L775.5,204.3z"/>
	</g>
	<g id="Illinois">
		<path id="IL" class="st0" d="M1026.9,353.9l-1.4-4.4l-2.3-6.3l-2.7-3.1l-2.6-4.4l-0.7-9.4l-27.1,3.1l-29.5,1.7h-20.9l0.3,3.6
			l3.7,1.5l1.9,2.4l0.7,2.4l6.6,5.8l1.2,4.1l-1.2,5.6l-2.9,6.3l-1.4,4.6l-4.1,3.3l-3.2,1l-8.8,2.3l-2.3,7l1,1.9l3.2,3.1l-0.3,7.3
			l-3.6,2.7l-0.9,2.3v4.8l-3.1,1l-2.4,2l-0.6,2l0.7,3.4l-2.7,2.3l-1.5,4.8l0.5,6.6l3.9,11.9l11.9,12.9l9.7,6.3v7.5l1.2,2l11.2,1
			l4.6,2.4l-1.1,6l-3.8,10.6l-1.4,5.1l3.4,6.3l10.9,9l8.2,1.4l3.7,8.7l3.4,5.8l-1.6,4.7l2.6,6.5l2.9,3.6l2.7-0.5l1.7-3.8l4.1-2.9
			l4.8-1.7l10.4,4.3l0.9-0.3v-1.9l-2-4.6l0.7-4.8l4.1-2.7l5.8-2l-0.8-2.3l-1.4-3.4l2-2.3l1.7-4.6v-6.8l0.7-8.3l4.3-5.1l3.1-6.5
			l4.3-6.8l-0.9-9l-3.1-5.5l-0.5-5.6l1.4-9l-1.1-12.3l-1.9-26.9l-2.4-26l-1.5-19.9L1026.9,353.9z"/>
	</g>
	<g id="Wisconsin">
		<path id="WI" class="st2" d="M895.3,176.2l4.9,0.9l4.9-1l12.6-5.4l4.9-3.2l3.6-1.4l3.2,2.6l-1.9,1.9l-3.2,5.3l-1,3.2l1.7,1
			l3.1-1.7l1.9-0.3l4.6,1.4l1,1.9l1.9,0.3l1-1.9l6.8,9l14,2l14,3.7l4.4,1.9l20.9,4.4l2.7,3.9l6.1,2l2.9,17.4l2.7,2.4l2.6,1.5
			l-1.9,3.9l-3.1,2.7l-3.6,8l-2.3,4.1l0.4,3.1l2.6,0.5l1.9-3.2l2.6-1.4l1.4-3.9l3.2-3.1l4.6-6.8l7.2-10.7l1.4-0.8l0.5,1.7l-0.3,3.9
			l-4.9,11.6l-4.6,9.7l-0.8,5.4l-1,4.4l1.4,2.3l-0.3,4.6l-3.2,4.1l-0.8,3.1l1,6.1l1,5.8l-2.6,4.4l-1.4,4.9l-1.7,5.3l1.9,4.1l1,10.4
			l2.7,7.7l-0.3,5.1l-27.1,3.1l-29.8,1.7h-21.5l-1.1-2.6l-4.9-0.8l-4.4-2.3l-3.9-6.3l-0.5-6.1l3.4-4.9l-0.8-2.4l-3.6-3.7l-1.4-5.6
			l-1-11.6l-3.6-4.3l-11.9-7.7l-6.5-9.2l-5.8-1.7l-3.7-4.8h-5.5l-4.9-5.6l-0.8-11.1l0.2-6.5l2.6-5.3l-1.4-5.5l-4.3-4.8l3.1-9.2
			l8.9-6.5l2.7-3.2l-0.3-13.8l0.3-4.8l4.1-4.8L895.3,176.2z"/>
	</g>
	<g id="Michigan">
		<path id="MI" class="st0" d="M1070.9,348.3l32.5-3.2l0.3,1.9l16.9-2.6l20.4-2.9l0.2-1l0.3-2.6l3.6-6.3l3.4-2.9l-0.4-8.7l2.7-2.7
			l1.9-0.5l0.3-6.1l2.6-5.1l1.9,1l0.3,1l1.4,0.3l3.2-1.7l-0.7-15.5l-5.4-13.9l-3.9-15.5l-4.1-5.5l-4.4-3.1l-2.7,1.9l-6.6,3.1
			l-3.2,8.5l-4.6,6.3l-1.9,1l-2.6-1c0,0-4.4-2.6-4.1-3.6s0.8-8.5,0.8-8.5l5.8-2.3l1.4-5.8l1-4.4l4.1-2.7l-0.5-17l-2.7-3.9l-2.3-1.4
			l-1.4-3.6l1.4-1.4l2.7,0.5l0.3-2.7l-4.4-3.8l-2.3-4.4h-4.4l-7.5-2.6l-9.4-5.8h-4.6l-1,1l-1.7-0.8l-5.3-3.9l-4.9,3.1l-4.9,3.9
			l0.5,6.1l1.7,0.5l3.6,0.8l0.8,1.4l-4.4,1.4l-4.4,0.5l-2.6,3.1l-0.5,3.6l0.5,2.7l0.5,9.4l-6.1,3.6l-1-0.3v-7.2l2.3-4.1l1-4.1
			l-1.4-1.4l-3.2,1.4l-1.7,7.1l-4.6,1.9l-3.1,3.2l-0.4,1.7l1,1.4l-1,4.4l-3.9,0.8v1.9l1.4,4.1l-1.9,10.4l-2.7,6.8l1,8l0.8,1.9
			l-1.4,4.1l-0.5,1.4l-0.5,4.6l6.1,10.2l4.9,11.1l2.6,8.2l-1.4,8l-1.7,10.2l-4.1,8.9l-0.5,4.6l-5.5,5.3L1070.9,348.3z M1014.2,225.1
			l-2.3-1.9l-3.1-17.7l-6.3-2.3l-2.9-3.9l-21.5-4.8l-4.7-1.8l-13.8-3.7l-13.3-1.7l-6.6-9l1.1-0.8l4.6-1.4l6.1-3.9v-1.7l1-1l10.2-1.7
			l4.1-3.2l7.5-3.6l0.3-2.3l3.3-4.9l3.1-1.4l2.3-3.1l3.9-3.9l7.5-4.1l8-0.8l1.9,1.9l-0.5,1.7l-6.3,1.7l-2.6,5.3l-3.9,1.4l-0.9,4.1
			l-4.1,5.5l-0.5,4.4l1.4,0.9l1.7-1.9l6.1-4.9l2.3,2.3h3.9l5.4,1.7l2.6,1.9l2.6,5.3l4.6,4.6l6.6-0.3l2.6-1.7l2.7,2.2l2.7,0.9
			l2.3-1.4h1.9l2.7-1.7l6.8-6.1l5.8-1.9l11.3-0.5l7.7-3.2l4.4-2.3l2.6,0.3v9.7l0.8,0.5l4.9,1.4l3.2-0.9l10.4-2.7l1.9-1.9l2.6,0.9
			v11.9l5.4,5.3l2.3,1l2.3,1.7l-2.3,0.5l-1.4-0.5l-6.3-0.8l-3.6,1l-3.9-0.3l-5.5,2.6h-3.1l-9.9-2.3l-8.9,0.3l-3.2,4.4l-11.9,1
			l-4.1,1.4l-1.9,5.3l-2.3,1.9l-0.9-0.3l-2.6-2.7l-7.7,4.1h-1l-1.9-2.7l-1.4,0.3l-3.2,7.5l-1.7,6.8l-5.4,11.7L1014.2,225.1z
			 M963.8,128.9l3.1-3.6l3.7-1.4l9.2-6.6l3.9-1l0.8,0.8l-8.7,8.7l-5.6,3.2l-3.6,1.5L963.8,128.9z M1110.5,183.5l1,4.3l5.5,0.3l2.3-2
			c0,0-0.2-2.6-0.7-2.7c-1-1-1.9-2.1-2.7-3.2l-3.7,0.3l-2.7,0.3l-0.5,1.9L1110.5,183.5z"/>
	</g>
	<g id="Minnesota">
		<path id="MN" class="st0" d="M764.6,102.8l-1,6.7V127l2.7,8.5l3.2,5.6l0.9,16.9l3.1,22.9l3.1,12.4l0.7,10.9v9l-2.7,3.1l-3.1,2.3
			v2.6l1.5,2.9l7,6l1.1,5.4v61.1l102.7-1l36.2-1.2l-0.8-10.2l-3.1-3.7l-12.3-7.8l-6.1-9l-5.8-1.5l-3.4-4.8h-5.4l-6-6.5l-0.9-11.9
			l0.2-6.6l2.6-5.1l-1.1-4.6l-4.8-5.3l3.8-10.4l9.2-6.8l2-2.4l-0.3-13.6l0.3-5.1l4.4-5.1l6.5-4.9l2.3-0.4l7.7-8.5l3.1-1.4l3.9-6.6
			l4.1-6.1l5.3-4.4l8.2-3.4l15.7-7l6.6-3.1l1-3.9l-7.5,0.7l-1.1,1.9h-1l-3.1-5.3l-15.1,0.5l-1.7,1.4h-1.7l-0.8-2.3l-1.4-3.1
			l-4.4,0.8l-5.4,5.4l-2.7,1.4h-5.3l-4.4-1.7v-3.6l-2.3-0.4l-0.8,0.9l-4.4-2.3l-0.8-4.9l-2.6,0.8l-0.8,1.7l-4.1-0.9l-9-4.1l-6.6-4.4
			h-4.9l-2.3-1.7l-3.9,1l-1.9,1.9l-0.5,2.3h-8.2v-3.6l-10.7-0.5l-0.5-2.6h-8.2l-2.7-2.7l-2.6-10.4l-1.4-9.4l-3.2-1.4l-3.9-0.9
			l-1,0.4l-0.5,14h-51.3L764.6,102.8z"/>
	</g>
	<g id="Iowa">
		<path id="IA" class="st1" d="M921.6,301.7l3.6,3.6l0.5,1.2l-3.4,5.1l0.5,6.8l4.4,7l5.3,2.7l4.1,0.5l1.5,3.1l0.3,4.1l4.3,1.7
			l1.5,1.9l0.9,2.7l6.5,5.6l1,3.2l-1.2,5l-2.9,6.3l-1,4.1l-3.6,2.7l-2.7,0.8l-9.7,2.6l-2.7,8.2l1.4,3.1l2.9,2.6l-0.3,6l-3.2,2.4
			l-1.1,3.1v4.1l-2.4,0.7l-2.9,2.4l-0.9,2.9l0.7,2.9l-2.3,1.7l-3.9-4.6l-2.4-4.8l-14.2,1.4l-17,1l-83.8,2l-2.7-7.3l-0.7-11.4
			l-2.4-7.2l-1.1-8.9l-3.8-6.3l-1.7-7.8l-4.6-13.3l-1.9-9.5l-2.4-3.2l-2.3-4.9l2.9-6.5l2-10.4l-4.6-3.8l-0.5-4.1l1.1-4.1l3.1-0.5
			l104.1-1.1l36.1-1.1L921.6,301.7z"/>
	</g>
	<g id="Missouri">
		<path id="MO" class="st2" d="M983.4,565.7l0.8-10l7.2-5.8l3.2-1.7v-4.9l1.2-2.7l-1.9-2.7l-4.1,0.5l-3.6-4.3l-2.9-7.7l1.5-4.4
			l-3.4-5.4l-3.1-7.8l-7.8-1.2L959,498l-3.7-7.2l1.4-5.6l3.7-10.2l1-5.1l-3.2-1.7l-11.7-1l-1.9-3.2v-7l-9-6l-12.3-13.3l-3.9-12.4
			l-0.8-7.2l1.2-4.1l-4.4-5.3l-2-4.1l-13.1,1.3l-17,1l-83.1,2l2.3,4.4l-0.2,3.8l3.9,6.1l5.1,6.6l5.3,5.1l4.4,0.3l2.4,1.9v4.9
			l-3.1,2.7l-0.8,3.9l3.6,5.4l4.1,5.1l4.4,3.6l2.3,19.7l-1.4,68.1l0.9,9.7l40.3-0.3l39.7-1.2l55.4-2.3l3.8,6.3l-1.4,5.3l-5.3,4.3
			l-0.8,3.1l8.8,0.9l7-1.9L983.4,565.7z"/>
	</g>
	<g id="Arkansas">
		<path id="AR" class="st0" d="M973.5,578.3l-10.9-1.2l1.5-5.3l5.3-4.4l1-3.9l-3.1-4.9l-54.3,2l-39.7,1.2l-40.2,0.5l2.6,11.7
			l0.2,14.5l2.4,18.6l0.5,65l3.6,2.7l5.1-2l4.9,2l0.7,17.2l42.9-0.3l45.5-1.4l1.5-3.2l-0.5-6.5l-2.9-5.3l2.6-2.4l-2.4-3.7l1.2-4.1
			l1.9-10l4.6-3.9l-1.4-3.8l6.8-9.5l4.3-1.9l-0.2-2.9l-0.9-2.9l4.9-9.9l4.3-1.9l0.3-5.6l3.6-2.4l1.5-7l-2.4-6.8l7.2-4.1l0.5-3.6
			l2-7.2l1.5-5.3L973.5,578.3z"/>
	</g>
	<g id="Louisiana">
		<path id="LA" class="st2" d="M870.7,816.3l13.8-0.5L902,822l11.1,1.9l6.3-2.6l5.4,1.9l5.5,1.7l1.4-3.6l-5.4-1.9l-4.4,0.8l-4.6-2.7
			l1.4-2.6l5.3-1.7l3.1,2.6l3.1-1.7l5.5,1l2.6,4.1l0.5,3.9l7.7,0.5l3.1,3.1l-1.4,2.7l-2.3,1.4l2.7,2.7l14.3,6.1l6.1-2.3l1.7-4.1
			l4.4-1l3.1-2.6l2.3,1.7l1.4,4.9l-3.9,1.4l1,1l5.8-2.3l3.9-5.8l1.4-0.8l-3.6-0.5l1.4-2.7l-0.3-2.6l3.6-0.9l1.9-2.3l1,1.4l1,5.3
			l7.2,1l6.8,3.2l1.7,2.6h4.9l1.9,1.7l3.9-5.3v-2.6h-2.3l-5.8-4.6l-9.9-1.4l-5.5-3.9l1.9-4.6l3.9,0.5l0.3-1l-3.1-1.7v-0.8h5.4
			l3.1-5.3l-2.3-3.2l-0.5-4.6l-2.6,0.3l-3.2,3.6l-1,4.4l-5.3-1l-1.6-2.9l3.1-3.2l3.2-2.9l-3.8-11.1l-5.8-5.8l1.7-12.4l-0.3-0.9
			l-2.3,0.4l-56.4,2.4l-1.4-4.1l1.4-14.5l14.7-25.2l-1.5-4.4l2.4-0.7l0.7-3.4l-3.7-3.4l0.2-3.2l-3.4-7.7l-0.7-8.7l0.2-1.2l-45,1.4
			l-42.9,0.2l0.7,16.5l1.2,16.2l0.8,6.3l4.4,7.7l1.5,7.5l7.3,10.2l0.5,5.3l1,1.4l-1.2,14.1l-4.8,7.8l2,4.1l-0.8,4.4l-1.4,12.4
			l-2.3,5.1l0.3,6.3L870.7,816.3z"/>
	</g>
	<g id="Mississippi">
		<path id="MS" class="st0" d="M1002.4,793.5l4.4-7.2l3.1,1.4l11.6-3.2l3.6,0.5l2.6,1.4h8.8l0.7-2.7l-2.9-25.2l-4.8-32.3l1.7-76.8
			l-0.3-28.4l0.3-10.7l-8.2,0.5l-33.4,2.7l-22.1,0.7l-0.3,5.4l-4.8,2.3l-4.4,8.7l0.8,2.7l0.2,4.1l-4.9,1.9l-6,8.7l1.4,3.9l-5.1,4.3
			l-1.7,9.7l-1,3.2l2.7,4.2l-2.6,2.4l2.6,4.8l0.5,7.2l-2,4.3l-0.3,1.5l0.7,8.5l3.4,7.7l-0.2,2.9l3.9,3.4l-1.2,5.3l-1.5,0.5l1,3.2
			l-14.7,25.5l-1.4,14l0.8,2.6l41.2-1.2l14-1.2l3.2-0.5l1,2.4l-1.7,12.1l5.6,5.6l3.8,10.9L1002.4,793.5z"/>
	</g>
	<g id="Alabama">
		<path id="AL" class="st0" d="M1043.6,783.1l1,0.3l2.3-4.6l2.6-7.5l3.9,1l5.3,10.2v1.7l-4.6,3.2l4.6,0.5l8.8-4.3l-0.5-12.9
			l-4.3-3.1l-3.4-3.4l0.7-6.8l17.9-2.6l43.8-4.9l11.4-1l9.5,0.2l-0.8-3.8l-2.6-1.4l-1.5-1.9l1.7-4.4l-0.7-8.9l-2.7-7.7l1.4-8.7
			l2.9-8.2l-0.3-2.9l-3.1-1.2l-0.9-6.1l-4.6-5.8l-3.4-11.1l-2.4-11.4l-3.1-8.5l-6.5-27.2l-6-13.5l-1.4-9.5l0.2-3.7l-15.3,1.4
			l-39.8,3.8L1033,610l-0.3,10.9l0.3,28.4l-1.2,52.8l-0.5,24l4.8,32l2.7,25L1043.6,783.1z"/>
	</g>
	<g id="Tennessee">
		<path id="TN" class="st0" d="M1115.6,601.3l-22.3,2l-39.7,3.7l-64,4.6l-20.1,0.7l1.5-1l1.5-7.7l-2-6.1l6.6-3.9l0.7-4.3l2-7.3
			l5.1-16.2l0.9-9.5l0.5-0.3l20.9-0.3l23.2-1.4l0.2-6.6l6-0.2l51.8-5.6l91.9-8.8l17.5-2.6l12.9-0.3l4.1-3.2l2.3,0.5l-0.2,5.6
			l-0.7,2.7l-4.1,3.7l-2.7,6.1l-3.4-0.7l-4.1,1.5l-3.8,5.6l-2.4-0.3l-1.4-2l-1.9,0.7l-7.3,6.8l-1.4,5.3l-7.2,3.7l-7.3,6.1l-6.5,2.6
			l-7.5,4.8l-1,6.1l-4.3,0.9l-3.4,2.9l-0.3,8.2L1115.6,601.3z"/>
	</g>
	<g id="Kentucky">
		<path id="KY" class="st0" d="M1007.4,554l21.5-1.1l0.2-7h7.3l51.8-5.4l76.8-7.3l9.5-6.1l6.6-3.6l0.2-3.2l10.2-13.3l7-6.1l3.6-4.1
			l-5.6-3.4l-4.2-4.6l-5.1-6.5l-0.8-3.8l-4.4-2.4l-1.5-3.2l-0.4-10.4l-4.4-3.4l-3.2-1.9l-0.8-3.9l-2.3,0.3l-3.4,2l-4.3,4.6l-3.2-2.9
			l-4.3-0.8l-4.1,2.4h-3.9l-3.1-3.4l-9.5-0.2l-3.1-7.7l-4.9-2.6l-3.6,1.4l-7.2,0.3l-0.9,3.6l2,2.6l0.5,3.6l-4.8,3.4l-6.5,3.1
			l-4.4,0.7l-0.9,7.7l-8.3,6.1l-4.4,6.3l0.3,3.8l-1.5,3.9l-7.7-0.2l-2.3-2.3l-6.6,3.8l0.3,5.6l-4.1,1l-1.4-2.4l-2.9-2l-4.6,1.9
			l-3.1,6l-3.7-1.7l-2.4-2.7l-6.3,0.7l-9.5,1.7l-4.8,2.3l-2,5.8l-1.7,1.7l2.6,6.3l-7.2,2.4l-3.2,2.4l-0.7,3.7l2,4.1v3.8l-2.7,0.7
			l-10.4-4.3l-3.9,1.5l-3.4,2.4l-1.3,2.9l2.9,4.1l-1.5,3.1l-0.2,5.6l-4.1,2.3l-3.6,2.9L1007.4,554z"/>
	</g>
	<g id="Pennsylvania">
		<path id="PA" class="st0" d="M1227.7,316.3l2.3-0.8l9.7-9.4l1.2,11.7l57-11.1l62.8-13.3l3.9,3.9l5.3,0.7l3.4,9.5l4.1,3.2l4.8,0.7
			l0.2,0.2l-4.4,5.5v5.3l-3.3,5.3l-0.3,3.2l2.3,2.3l-0.4,3.2l-4.1,1.9l1.7,5.8l0.4,1.9l4.8,0.5l1.5,4.2l10,6.6v0.7l-5.3,5.1
			l-2.6,3.7l-2.9,4.8l-4.6,2l-2.4,0.5l-3.6,2.3l-2.7,2.4l-38.2,7.2l-65.9,13.3l-19.2,2.4l-6.6,1.2l-8.7-38.1l-7.3-44.1L1227.7,316.3
			z"/>
	</g>
	<g id="New_Jersey">
		<path id="NJ" class="st0" d="M1375.9,377.8l0.2-2.6l4.6-2.2l2.9-4.8l2.9-4.1l5.6-5.4v-2l-10.4-7l-1.7-4.6l-4.6-0.5l-0.2-1.5
			l-1.1-3.7l3.7-1.9l0.3-4.9l-2.3-2.3l0.3-2l3.2-5.3v-5.3l4.3-5.3l9.5,4.2l10.9,3.2l4.3,2l0.2,3.1l-0.9,4.6l0.7,7.7l-3.6,3.2
			l-1.9,1.7l0.9,0.8l4.6-0.5l1.9-1.4l2.7,5.8l0.3,16l1,1.9l-1.9,9.4l-5.3,11.2l-4.6,6.8l-1.4,8.2l-3.6,4.1h-1.4l-0.5-4.6l1.4-1.7
			l-0.3-2.6l-6.8-1l-8.2-3.9l-5.4-4.9l-1.7-3.4L1375.9,377.8z"/>
	</g>
	<g id="Rhode_Island">
		<path id="RI" class="st0" d="M1460.9,288.2l-1.4-7.5l-2.7-10.2l9.7-2.6l2.6,2.3l5.8,7.3l4.8,7.5l-4.8,2.4l-2.3-0.3l-1.9,3.1
			l-4.1,3.2l-4.8,1.9L1460.9,288.2z"/>
	</g>
	<g id="Connecticut">
		<path id="CT" class="st0" d="M1424.1,314.2l6.1-5.4l3.2-3.6l1.4,1l4.6-2.6l8.9-1.9l11.9-6l-1-7.2l-1.4-7.5l-2.7-10.2l-7.3,1.9
			l-37.1,8l1,5.3l2.6,12.4v14.1l-1.5,3.6l2.9,3.8L1424.1,314.2z"/>
	</g>
	<g id="Massachusetts">
		<path id="MA" class="st0" d="M1484.6,282.8l-0.8-3.9l1.4-2.6l4.9-2.6l1.4,5.3l-0.8,3.1l-4.1,2.6v1.7l3.2-2.6l6.6-7.7l6.6-3.2
			l7.2-2.6l-0.5-4.1l-1.7-4.9l-3.2-4.1l-3.1-1.4l-3.6,0.3l-0.9,0.9l1.7,2.3l2.6-1.4l3.6,2.7l1.4,4.6l-3.1,3.1l-3.9,1.7l-6.1-0.8
			l-6.6-10.2l-3.9-4.4h-3.1l-1.9,1.4l-3.2-4.4l0.5-2.6l4.1-8.8l-4.9-7.5l-6.3,3.1l-3.1,4.9l-31.2,8l-23.5,4.3l-1,18.1l1.2,8.3
			l37.4-8.2l19.1-4.8l3.4,2.7l5.8,7.3l4.9,8L1484.6,282.8z M1505.9,285.2l3.7-1.2l0.9-2.9l1.7,0.2l1.7,3.9l-2.3,0.9l-6.6,0.2
			L1505.9,285.2z M1489.8,286.5l3.9-4.4h2.7l3.1,2.6l-4.1,1.7l-3.8,1.7L1489.8,286.5z"/>
	</g>
	<g id="Maine">
		<path id="ME" class="st0" d="M1447.6,145.6l2.6,0.7v-4.4l1.4-9.4l4.4-8l2.6-6.8l-3.2-4.1v-10.2l1.4-1.7l1.4-4.6l-0.3-2.6l-0.3-8.2
			l3.1-8.2l4.9-15.1l3.6-7.2h2.3l2.3,0.3v1.9l2.3,3.9l4.6,1l1.4-1.4V60l6.8-4.9l3.1-3.1l2.6,0.3l10.2,4.1l3.2,1.7l15.5,50.9h10.2
			l1.4,3.2l0.3,8.2l4.9,3.9h1.4l0.4-0.8l-0.9-1.9l4.8-0.8l3.2,3.6l3.9,6.3v3.2l-3.6,8l-3.2,1l-5.8,5.3l-8.2,9.4h-2.3
			c-1,0-1.7-3.6-1.7-3.6l-3.1,0.3l-1.7,2.6l-4.1,2.6l-1.7,2.6l2.7,2.6l-0.9,1l-0.8,4.6l-3.2-0.3v-2.7l-0.5-2.3l-2.6,0.5l-3.1-5.4
			l-3.6,2.3l2.3,2.6l0.5,1.9l-1.4,2.3l0.5,5.3l0.4,2.7l-2.7,4.4l-4.9,0.8l-0.5,4.9l-9,5.3l-2.3,0.8l-2.7-2.6l-5.3,6.1l1.7,5.4
			l-2.6,2.3l-0.3,7.5l-1.9,10.7l-3.8-1.5l-0.8-5.3l-6.8-1.9l-0.3-4.3l-19.9-63.9L1447.6,145.6z M1509.8,172.1l2.6-2.6l2.4,1.9l1,4.1
			l-2.9,1.5L1509.8,172.1z M1521.2,162.1l3.1,3.2c0,0,2.3,0.2,2.3-0.3c0-0.5,0.3-3.4,0.3-3.4l1.5-1.4l-1.4-3.1l-3.4,1.2
			L1521.2,162.1z"/>
	</g>
	<g id="New_Hampshire">
		<path id="NH" class="st0" d="M1474.7,229.7l1.9-5.5l-4.6-2l-0.8-5.3l-7-1.9l-0.5-5.1l-19.9-63.8l-1.1,0.1l-1,2.7l-1-0.8l-1.7-1.7
			l-2.6,3.2l-0.3,3.9l0.8,14.3l3.2,4.8v7.3l-6.6,8.2l-4.1,1.5v1.2l1.9,3.2v14.7l-1.4,15.7l-0.3,8l1.7,2.4l-0.3,8l-0.8,2.6l1.7,1.9
			l8.7-2l23.5-6l2.9-4.9l6.8-3.2L1474.7,229.7z"/>
	</g>
	<g id="Vermont">
		<path id="VT" class="st0" d="M1391.3,178.6l4.1,11.1l1.4,9l-1.7,6.6l4.3,7.5l1.5,3.9l-1.2,4.4l5.6,2.6l4.9,18.4v9l19.6-3.6
			l-1.7-1.9l1-3.2l0.3-7.3l-1.7-2.4l0.3-8l1.4-15.8v-14.5l-1.9-3.1v-2.7l4.8-1.9l6-7.5v-6.1l-3.2-4.6l-0.5-9.9l-44.4,11.6
			L1391.3,178.6z"/>
	</g>
	<g id="New_York">
		<path id="NY" class="st0" d="M1409.5,329.6l0.8-4.6l-0.3-4.1l-5.1-2.6l-11.1-3.4l-10.2-4.4l-1-0.7l-4.6-0.5l-3.4-2.6l-3.6-10
			l-5.6-0.8l-4.1-4.1l-65.4,13.8l-53.8,10.2l-0.8-11.1l2.7-2l2.3-1.9l1.7-2.7l3.1-1.9l3.2-3.1l0.8-2.7l3.6-4.6l1.9-1.7l-0.3-1.7
			l-2.3-5.3l-3.1-0.3l-3.2-10.4l4.9-3.1l7.5-2.6l6.8-2.3l5.4-0.8l10.7-0.3l3.2,2.3l2.7,0.3l3.6-2.3l4.4-1.9l8.9-0.8l3.6-3.1l3.1-5.5
			l2.7-3.2h3.6l3.2-1.9l0.3-3.9l-2.6-3.6l-0.5-2.6l1.9-3.6v-2.6h-3.1l-3.1-1.4l-1.4-1.9l-0.3-4.4l9.9-9.4l1-1.3l2.6-4.9l4.9-7.7
			l4.6-6.3l3.6-4.1l4.1-3.1l5.3-2l9.4-2.3l5.4,0.3l7.7-2.6l12.6-3.8l1.2,8.3l4.1,11.1l1.4,8.5l-1.7,7.2l4.4,7.7l1.4,3.4l-1.5,5.4
			l6.3,2.9l4.6,17.4v9.9l-1,18.5l1.4,9.2l1.1,6.1l2.6,12.4v13.8l-1.9,3.9l3.6,4.6l0.8,1.5l-3.2,3.1l0.5,2.3l2.3-0.5l2.6-2.3l3.9-4.4
			l1.9-1l2.7,1l3.9,0.3l13.5-6.6l5-4.6l2.3-2.6l7.2,2.7l-5.8,6.1l-6.6,4.9l-12.1,9l-4.4,1.7l-9.9,3.2l-6.8,1.9l-1.7-0.7
			L1409.5,329.6z"/>
	</g>
	<g id="Florida">
		<path id="FL" class="st0" d="M1250.8,747l-8.9-1.2l-1.1,1.4l2.6,7.5l-0.7,8.9l-7.1-1.7l-0.3-4.8h-7l-9,1.1l-55.1,3.3l-14-0.5
			l-2.9-2.9l-4.3-7.2h-10l-11.2,0.9l-60.3,7.2l-0.5,4.8l2.7,2.7l4.9,3.4l0.5,14.3l5.6-1l10.2-3.6l10.2-0.8l7.5-1l13,3.1l13.8,6.7
			l2.7,2.6l4.9,1.9l2.7,3.2l0.5,4.6l5.4-2.3h6.6l6.1-3.2l6.3-6.1l5.3,0.3l0.9-1.9l-1.4-1.7l0.3-3.2l6.8-1.4h4.4l4.9,2.6l7.2,2.6
			l4.1,6.3l4.6,1.7l1.9,5.8l5.8,2.7l2.7,4.4l3.2,1l8.9,2.3l2.3,5.3l5.1,6.3v16.2l-2.6,8l0.5,4.6l2.3,8.2l3.1,6.8l1.4-0.8l2.6-7.7
			l-4.4-1.7l-0.5-1l2.7-1l7.7,1.7l0.3,2.7l-5.4,9.4l-3.6,4.1l6.1,6.3l4.4,5.3l4.9,9l4.9,6.6l3.6,8.5l3.1,0.5l2.7-3.6l3.1,1.9
			l4.4,6.8l1,6.1l5.3,7.5l1.4-2.3l6.6,0.5l6.1,3.9l5.8,8.9l1.4,5.8l0.5,4.9l1.9,1.7l2.3,0.8l4.1-1.7l2.6-2.7l6.6-0.3l5.3-2.6
			l4.6-5.4l-0.9-3.2l-0.5-4.1l1-3.2l-0.5-3.2l4.1-2.3l0.5-5.8l-1-3.1l-0.9-20.4l-2.3-12.9l-7.7-14l-6.1-9.9l-4.4-9l-4.9-4.9
			l-4.9-12.6l1.2-2.4l1.9-2.3l-2.7-4.9l-6.8-6.3l-8.2-9.4l-6.3-10.7l-9-16l-6.3-16.5l-3.9-12.4L1250.8,747z M1281,973l4.1-1l2.3-0.3
			l2.6-3.9l3.9-2.7l2.3,0.8l2.9,0.5l0.7,1.9l-6,2l-7.2,2.5l-3.9,2L1281,973z M1303.9,964.5l2,1.9l4.6-3.6l9-7.2l6.3-6.6l4.2-11.2
			l1.7-2.9l0.3-5.8l-1.1,0.8l-1.7,4.8l-2.6,7.8l-5.4,9l-7.5,7.2l-5.8,3.2L1303.9,964.5z"/>
	</g>
	<g id="Georgia">
		<path id="GA" class="st0" d="M1250.8,745.3l-9.5-1.1l-2.4,2.7l2.7,8l-0.5,6.6l-3.8-1l-0.3-5.1h-8.9l-9,1.2l-55,3.2l-13.1-0.5
			l-2.4-2l-4.3-7.3l-1.4-5.6l-2.7-1.5l-0.8-0.8l1.5-3.8l-0.7-9.4l-2.7-7.7l1.4-8.3l2.9-8.2l-0.3-4.2l-3.2-1.2l-0.7-5.4l-4.8-6
			l-3.2-10.6l-2.6-11.9l-2.9-8.2l-6.5-27.2l-6-13.6l-1.4-9l0.2-3.9l5.6-0.5l23.2-2.7l31.6-3.4l10.7-1.9l0.9,2.4l-3.8,1.5l-1.5,3.7
			l0.7,3.4l2.4,2.7l7.3,4.6l5.4-0.2l5.4,8l1,2.7l3.9,4.8l0.9,2.9l8,3.1l5.1,3.8l3.9,5.1l3.9,2.3l3.4,3.1l2.4,4.6l3.6,3.2l7,3.1
			l4.6,10.2l2.9,8.7l4.8,1.2l3.6,3.2l3.4,9.7l4.9,2.7l2.9-1.4l0.7,2l-5.6,10.6l0.8,4.4l-2.6,7.2l-3.9,17l1.4,10.7L1250.8,745.3z"/>
	</g>
	<g id="South_Carolina">
		<path id="SC" class="st0" d="M1265.8,693.3l-3.6-1.7l-3.2-9.5l-4.3-3.9l-4.2-0.8l-2.6-7.8l-5.1-11.1l-7.2-3l-3.2-3.1l-2-4.4
			l-4.1-3.4l-3.9-2.2l-3.7-5l-5.4-4.1l-7.5-2.9l-0.7-2.4l-3.9-4.8l-0.8-2.6l-6.5-9.2l-5.8,0.2l-6.6-4.3l-2-2l-0.3-2.4l1-2.7l4.6-2.3
			l-1.4-3.4l10.9-4.6l15.7-7.7l12.1-1.5l27.9-0.8l3.9,3.2l3.1,6l7.8-1.4l21.5-2.6l4.6,1.4l21.3,12.6l17.2,14.1l-9,9.2l-4.4,10.4
			l-0.8,10.7l-2.7,1.4l-1.9,4.6l-4.1,1l-3.6,6.1l-4.6,4.6l-3.9,5.8l-2.7,1.4l-6.1,5.8l-4.9,0.3l1.7,5.4l-8.5,9l-3.9,2.7
			L1265.8,693.3z"/>
	</g>
	<g id="North_Carolina">
		<path id="NC" class="st0" d="M1313,598.1l-21.6-13.1l-5.3-1.4l-28.2,3.6l-2.7-5.1l-4.8-3.8l-28.4,0.9l-12.6,1.6l-15.7,7.7
			L1182,593l-11.1,2l-22.8,2.4l0.2-7l2.9-2.3l4.6-1.2l1.2-6.5l6.6-4.3l6.6-2.6l7.7-6.3l7.5-3.9l1.2-5.4l7-6.5l1.2,1.7l4.2,0.3
			l4.1-6.1l2.9-0.7l4.4,0.5l3.1-6.8l4.3-4.1l0.8-3.1l0.2-6l7.5,0.2l65.5-9.5l97.9-20.9l3.4,8.2l6.1,11.1l4.1,4.1l1,3.9l-4.1,0.3
			l1.4,1l-0.5,7.1l-4.4,2.3l-1,3.6l-2.3,4.9l-6.3,2.7l-4.1-0.5l-2.6-0.3l-2.7-2.3l0.5,2.3v1.7h3.2l1.4,2.3l-3.2,10.7h7.2l1,2.7
			l3.9-3.9l2.3-0.8l-3.2,6.1l-5.3,8.2h-2.3l-1.9-0.9l-4.6,1l-8.9,4.1l-11.1,9l-5.8,8l-3.2,11.1l-0.9,4.1l-8,0.8l-8.7,2.6L1313,598.1
			z M1396.9,553.5l4.4-4.3l5.4-4.4l2.6-1l0.3-3.4l-1-10.4l-2.6-3.9l-1-3.2l1.2-0.3l4.6,9.4l0.7,7.5l-0.3,5.8l-5.8,2.6l-4.8,4.1
			l-1.9,2L1396.9,553.5z"/>
	</g>
	<g id="Virginia">
		<path id="VA" class="st0" d="M1394.7,440.6l-0.3,4.8l-4.9,6.5l-0.7,7.8l0.8,5.8l-3.1,8.5l-3.8,3.2l-2.6-7.8l0.7-9.2l2.7-7.2
			l1.2-5.6l-0.2-2.9L1394.7,440.6z M1292,516.5l-65.7,9.5l-8.2-0.2l-3.7-0.5l-4.3,3.2l-12.4,0.2l-17.5,2.7l-11.4,1l7-4.4l7-3.9v-3.6
			l9.7-12.4l7-6.3l3.7-4.3l6.1,7.3l6.5,1.5l4.6-1.7l3.4-2.6l4.1,2l7.8-2.3l2.9-7.5l4.1,1.2l5.5-3.9l2.7,0.7l4.8-5.4l0.3-4.6l-1.4-2
			l8.2-17.9l3.1-8.8l0.8-8l1.2-0.4l1.9,2.9l2.6,2l6.6-0.3l2.9-13.8l5.1-1l1.4-4.4l4.8-3.7l1.9-3.6l3.1-7.3l0.2-7.8l6.1,2.4l11.2,5.3
			l0.5-8.8l5.8,2l-1,4.9l14.7,5.3l2.4,3.1l-1.4,5.6l-2.3,2.3l-0.8,2.9l0.8,4.1l3.4,2.3l6.6,2.4l4.9,1.7l8.3,1.5l3.7,3.6l5.5,0.7
			l1.5,2l-0.7,8l2.4,1.9l-0.8,3.2l2,1.4l-0.3,2.4l-4.6-0.2l0.2,2.7l3.9,2.6l0.2,2.4l3.1,3.1l0.9,4.3l-4.4,2.4l2.7,2.6l9.9-2.9
			l6.3,10.6L1292,516.5z"/>
	</g>
	<g id="District_of_Columbia">
		<circle class="st0" cx="1337.8" cy="417.8" r="8.5"/>
	</g>
</g>
</svg>
