<svg width="40" height="40" viewBox="0 0 40 40" fill="none" xmlns="http://www.w3.org/2000/svg">
<rect width="40" height="40" rx="2" fill="#DBF4FF"/>
<path d="M25.3488 19.3826C25.5138 19.3626 25.6701 19.3601 25.8151 19.3826C25.8976 19.1901 25.9126 18.8589 25.8388 18.4976C25.7263 17.9614 25.5751 17.6376 25.2626 17.6901C24.9488 17.7401 24.9363 18.1276 25.0501 18.6639C25.1126 18.9639 25.2251 19.2214 25.3488 19.3826V19.3826ZM22.6626 19.8064C22.8876 19.9039 23.0251 19.9676 23.0763 19.9139C23.1126 19.8789 23.1026 19.8089 23.0488 19.7214C22.9042 19.5142 22.7028 19.3531 22.4688 19.2576C22.2189 19.1535 21.9463 19.1156 21.6774 19.1476C21.4085 19.1796 21.1524 19.2803 20.9338 19.4401C20.7851 19.5501 20.6438 19.7014 20.6613 19.7939C20.6701 19.8226 20.6901 19.8464 20.7426 19.8564C20.8663 19.8701 21.2976 19.6514 21.7963 19.6214C22.1488 19.5964 22.4376 19.7064 22.6626 19.8064V19.8064ZM22.2113 20.0626C21.9213 20.1089 21.7601 20.2039 21.6576 20.2964C21.5688 20.3739 21.5163 20.4564 21.5163 20.5176L21.5388 20.5701L21.5851 20.5876C21.6513 20.5876 21.7988 20.5301 21.7988 20.5301C22.2038 20.3864 22.4726 20.4026 22.7388 20.4326C22.8851 20.4501 22.9538 20.4576 22.9863 20.4076C22.9951 20.3926 23.0088 20.3639 22.9776 20.3151C22.9076 20.2014 22.6138 20.0151 22.2113 20.0626V20.0626ZM24.4413 21.0076C24.6401 21.1051 24.8576 21.0651 24.9288 20.9214C25.0026 20.7776 24.8988 20.5814 24.7001 20.4851C24.5026 20.3864 24.2838 20.4239 24.2126 20.5676C24.1413 20.7114 24.2451 20.9101 24.4413 21.0076ZM25.7138 19.8939C25.5538 19.8914 25.4213 20.0664 25.4163 20.2889C25.4126 20.5101 25.5413 20.6901 25.7026 20.6914C25.8638 20.6939 25.9963 20.5176 26.0001 20.2976C26.0038 20.0776 25.8763 19.8976 25.7138 19.8939ZM14.9088 23.8726C14.8688 23.8226 14.8026 23.8364 14.7388 23.8539C14.6938 23.8626 14.6438 23.8751 14.5901 23.8739C14.5362 23.8749 14.4829 23.8629 14.4348 23.8387C14.3866 23.8145 14.3451 23.779 14.3138 23.7351C14.2401 23.6226 14.2438 23.4539 14.3263 23.2626L14.3638 23.1764C14.4938 22.8876 14.7076 22.4026 14.4663 21.9414C14.3875 21.7786 14.2696 21.6377 14.1233 21.5313C13.977 21.4249 13.8068 21.3562 13.6276 21.3314C13.4582 21.3097 13.286 21.3287 13.1254 21.3867C12.9648 21.4448 12.8203 21.5402 12.7038 21.6651C12.3488 22.0564 12.2951 22.5914 12.3626 22.7814C12.3888 22.8514 12.4288 22.8701 12.4563 22.8739C12.5163 22.8826 12.6051 22.8376 12.6613 22.6864L12.6788 22.6389C12.7038 22.5589 12.7501 22.4089 12.8263 22.2914C12.9203 22.1477 13.0675 22.0472 13.2356 22.012C13.4037 21.9769 13.5789 22.0099 13.7226 22.1039C13.9726 22.2676 14.0663 22.5726 13.9601 22.8639C13.9051 23.0151 13.8163 23.3026 13.8351 23.5389C13.8751 24.0176 14.1726 24.2101 14.4351 24.2339C14.6926 24.2426 14.8726 24.0989 14.9188 23.9926C14.9451 23.9264 14.9226 23.8876 14.9088 23.8726V23.8726Z" fill="#084762"/>
<path d="M29.7763 22.9963C29.765 22.96 29.7 22.7263 29.6138 22.4463L29.4338 21.9663C29.785 21.4375 29.7913 20.9675 29.745 20.7C29.6923 20.3559 29.5291 20.0383 29.28 19.795C29.0025 19.505 28.4338 19.205 27.6363 18.9813L27.2175 18.865C27.215 18.8463 27.195 17.8775 27.1788 17.4613C27.165 17.1613 27.14 16.6913 26.9938 16.2288C26.8188 15.6013 26.5175 15.0563 26.1388 14.7025C27.1825 13.6225 27.8325 12.4313 27.8313 11.41C27.8275 9.44627 25.415 8.84877 22.4413 10.0813L21.8125 10.3488C21.81 10.3463 20.6738 9.23127 20.6575 9.21752C17.265 6.26002 6.66754 18.0425 10.0575 20.9038L10.7988 21.53C10.5986 22.0664 10.5275 22.6423 10.5913 23.2113C10.6725 24 11.0775 24.7538 11.735 25.3375C12.36 25.89 13.1838 26.2425 13.98 26.2413C15.2988 29.2813 18.3113 31.1438 21.8438 31.25C25.6338 31.3625 28.8138 29.5838 30.1488 26.3888C30.235 26.165 30.605 25.155 30.605 24.2638C30.6038 23.3663 30.0975 22.995 29.7763 22.9963V22.9963ZM14.27 25.3863C14.1546 25.4069 14.0373 25.4157 13.92 25.4125C12.775 25.38 11.5388 24.35 11.4163 23.1288C11.28 21.7788 11.97 20.7388 13.1925 20.4938C13.3375 20.4625 13.515 20.4463 13.705 20.455C14.39 20.495 15.3975 21.02 15.6288 22.5113C15.8338 23.83 15.5088 25.1763 14.27 25.3863ZM12.9938 19.6838C12.2506 19.8211 11.5902 20.2426 11.1525 20.8588C10.9063 20.6538 10.45 20.2588 10.37 20.1038C9.71504 18.8613 11.0838 16.4438 12.0413 15.0788C14.4025 11.7063 18.105 9.15502 19.82 9.61502C20.0975 9.69502 21.02 10.7663 21.02 10.7663C21.02 10.7663 19.3075 11.715 17.7175 13.04C15.5788 14.69 13.96 17.085 12.9938 19.6838V19.6838ZM25.0075 24.8813C25.0205 24.8758 25.0312 24.8662 25.038 24.854C25.0448 24.8418 25.0473 24.8276 25.045 24.8138C25.0443 24.8054 25.0418 24.7973 25.0379 24.79C25.0339 24.7826 25.0285 24.7761 25.022 24.7708C25.0154 24.7656 25.0079 24.7617 24.9998 24.7594C24.9918 24.7571 24.9834 24.7565 24.975 24.7575C24.975 24.7575 23.1825 25.0225 21.4888 24.4038C21.6725 23.805 22.165 24.0188 22.9063 24.08C24.0585 24.148 25.214 24.023 26.325 23.71C27.0913 23.4888 28.0988 23.055 28.8813 22.4375C29.1463 23.0188 29.2388 23.6563 29.2388 23.6563C29.2388 23.6563 29.4425 23.62 29.6138 23.725C29.7763 23.825 29.8938 24.0313 29.8138 24.5638C29.6475 25.5613 29.225 26.37 28.5113 27.115C28.0672 27.597 27.5379 27.9928 26.95 28.2825C26.6234 28.4546 26.2831 28.5993 25.9325 28.715C23.2463 29.5913 20.4963 28.6275 19.61 26.5563C19.5386 26.3976 19.4793 26.2338 19.4325 26.0663C19.055 24.7013 19.375 23.0663 20.3763 22.0338V22.0325C20.44 21.9675 20.5038 21.8913 20.5038 21.7938C20.5038 21.7138 20.4513 21.6275 20.4075 21.565C20.0575 21.0575 18.8413 20.1913 19.0863 18.515C19.26 17.31 20.3138 16.4625 21.2963 16.5125L21.5463 16.5275C21.9713 16.5525 22.3425 16.6063 22.6925 16.6225C23.28 16.6463 23.8063 16.5613 24.4313 16.0413C24.6425 15.8638 24.8113 15.7125 25.0963 15.665C25.1263 15.6575 25.2013 15.6338 25.35 15.6388C25.5026 15.6449 25.6507 15.692 25.7788 15.775C26.2788 16.1075 26.35 16.915 26.3775 17.5063C26.3925 17.8425 26.4338 18.6588 26.4463 18.8913C26.4788 19.4263 26.62 19.5025 26.9025 19.595C27.0638 19.65 27.2125 19.6875 27.4313 19.7513C28.0925 19.935 28.4875 20.1263 28.735 20.3675C28.8633 20.4918 28.9461 20.6556 28.97 20.8325C29.0513 21.4038 28.5288 22.1088 27.1513 22.7488C25.6438 23.4475 23.815 23.625 22.5525 23.4838L22.11 23.4338C21.0975 23.2988 20.5238 24.6038 21.13 25.4975C21.5213 26.0738 22.585 26.4488 23.6513 26.4488C26.0925 26.4513 27.97 25.4088 28.67 24.5063L28.725 24.4275C28.7575 24.375 28.7313 24.3488 28.6875 24.3763C28.1188 24.7663 25.5838 26.3163 22.8738 25.8513C22.8738 25.8513 22.5438 25.7963 22.2438 25.6788C22.0063 25.5888 21.505 25.3563 21.445 24.8438C23.6288 25.5225 25.0075 24.8825 25.0075 24.8813V24.8813ZM17.3575 15.0663C18.1975 14.0963 19.2313 13.2513 20.1588 12.7788C20.19 12.7613 20.2238 12.7975 20.2063 12.8263C20.0925 13.0258 20.0051 13.2393 19.9463 13.4613C19.9388 13.495 19.975 13.5225 20.0038 13.5013C20.5813 13.1088 21.5838 12.6875 22.4638 12.635C22.4724 12.6335 22.4812 12.6351 22.4887 12.6394C22.4963 12.6437 22.5021 12.6505 22.5052 12.6586C22.5083 12.6667 22.5085 12.6757 22.5057 12.6839C22.5029 12.6921 22.4974 12.6992 22.49 12.7038C22.3442 12.8156 22.2139 12.9464 22.1025 13.0925C22.085 13.1175 22.1013 13.1538 22.1325 13.1538C22.75 13.1575 23.6213 13.3725 24.1875 13.6913C24.225 13.7138 24.1975 13.7875 24.1563 13.7775C23.2963 13.5813 21.8925 13.4313 20.4325 13.7875C19.1275 14.105 18.1325 14.595 17.4088 15.1238C17.3713 15.1488 17.3275 15.1 17.3575 15.0663V15.0663Z" fill="#084762"/>
</svg>
