<svg width="40" height="40" viewBox="0 0 40 40" fill="none" xmlns="http://www.w3.org/2000/svg">
<rect width="40" height="40" rx="2" fill="#DBF4FF"/>
<path d="M25.7083 31.6978H15.2916C10.6978 31.6978 9.302 30.302 9.302 25.7083V15.2916C9.302 10.6978 10.6978 9.302 15.2916 9.302H16.8541C18.677 9.302 19.2499 9.89575 19.9791 10.8645L21.5416 12.9478C21.8853 13.4062 21.9374 13.4687 22.5833 13.4687H25.7083C30.302 13.4687 31.6978 14.8645 31.6978 19.4583V25.7083C31.6978 30.302 30.302 31.6978 25.7083 31.6978ZM15.2916 10.8645C11.5624 10.8645 10.8645 11.5728 10.8645 15.2916V25.7083C10.8645 29.427 11.5624 30.1353 15.2916 30.1353H25.7083C29.4374 30.1353 30.1353 29.427 30.1353 25.7083V19.4583C30.1353 15.7395 29.4374 15.0312 25.7083 15.0312H22.5833C21.2499 15.0312 20.8124 14.5728 20.2916 13.8853L18.7291 11.802C18.1874 11.0833 18.0208 10.8645 16.8541 10.8645H15.2916V10.8645Z" fill="#084762"/>
<path d="M28.8332 15.427C28.4062 15.427 28.052 15.0728 28.052 14.6458V13.2083C28.052 11.5624 27.3541 10.8645 25.7083 10.8645H16.3333C15.9062 10.8645 15.552 10.5103 15.552 10.0833C15.552 9.65617 15.9062 9.302 16.3333 9.302H25.7083C28.2291 9.302 29.6145 10.6874 29.6145 13.2083V14.6458C29.6145 15.0728 29.2603 15.427 28.8332 15.427Z" fill="#084762"/>
</svg>
